/* XPM */
static char *result[] = {
/* columns rows colors chars-per-pixel */
"64 64 231 2 ",
"   c #1E1E1E",
".  c #121416",
"X  c #070B13",
"o  c #211F1F",
"O  c #21201F",
"+  c #1D1E24",
"@  c #0F1733",
"#  c #2F1F28",
"$  c #1D2630",
"%  c #222222",
"&  c #2B2B2B",
"*  c #28272A",
"=  c #34202A",
"-  c #382B29",
";  c #3B312B",
":  c #3D3127",
">  c #262D33",
",  c #2B2D33",
"<  c #292B3B",
"1  c #252736",
"2  c #342F32",
"3  c #2B343C",
"4  c #2B3539",
"5  c #3C3A3B",
"6  c #373438",
"7  c #44342B",
"8  c #4B392A",
"9  c #563D2C",
"0  c #47393B",
"q  c #553B39",
"w  c #5B4534",
"e  c #59402C",
"r  c #6C4A34",
"t  c #654631",
"y  c #734E34",
"u  c #795539",
"i  c #67452D",
"p  c #2A2E44",
"a  c #2B3441",
"s  c #2D3944",
"d  c #2D364C",
"f  c #333C4B",
"g  c #363A44",
"h  c #2D3453",
"j  c #31365B",
"k  c #353B57",
"l  c #353B6B",
"z  c #343B64",
"x  c #373E73",
"c  c #2A3D64",
"v  c #433D49",
"b  c #423F69",
"n  c #2F404E",
"m  c #39414A",
"M  c #2E4253",
"N  c #33455A",
"B  c #34495B",
"V  c #374657",
"C  c #39525C",
"Z  c #344C63",
"A  c #394769",
"S  c #3B5561",
"D  c #37536A",
"F  c #39546D",
"G  c #3A5667",
"H  c #3B457A",
"J  c #3A5571",
"K  c #3B5B78",
"L  c #3D617E",
"P  c #484649",
"I  c #544B49",
"U  c #494B54",
"Y  c #5B535C",
"T  c #565559",
"R  c #48515E",
"E  c #65574A",
"W  c #70594A",
"Q  c #7A6A57",
"!  c #475665",
"~  c #535C68",
"^  c #435576",
"/  c #4E5073",
"(  c #695965",
")  c #446576",
"_  c #586877",
"`  c #51646F",
"'  c #696768",
"]  c #737879",
"[  c #726B74",
"{  c #84593A",
"}  c #935D36",
"|  c #AC6934",
" . c #9B653C",
".. c #886442",
"X. c #976C46",
"o. c #997B5A",
"O. c #93704E",
"+. c #A87C51",
"@. c #A4774D",
"#. c #8A7466",
"$. c #805F42",
"%. c #7F847D",
"&. c #AB8359",
"*. c #B38A5A",
"=. c #BD925F",
"-. c #97846B",
";. c #BC9565",
":. c #B2936E",
">. c #CF8B4D",
",. c #C49D6D",
"<. c #CDA46C",
"1. c #D5A86C",
"2. c #CAA677",
"3. c #D5AC72",
"4. c #DAB37A",
"5. c #3B4383",
"6. c #3E478A",
"7. c #3F4A97",
"8. c #3E6483",
"9. c #455687",
"0. c #434E9E",
"q. c #434F95",
"w. c #475797",
"e. c #515885",
"r. c #436888",
"t. c #4E7C8D",
"y. c #4A7586",
"u. c #466C94",
"i. c #496A96",
"p. c #487398",
"a. c #58788F",
"s. c #667485",
"d. c #6C718E",
"f. c #444FA2",
"g. c #4855AD",
"h. c #4855A7",
"j. c #4A58B8",
"k. c #4C65A6",
"l. c #536EAB",
"z. c #4C72A4",
"x. c #4F76A9",
"c. c #557AB7",
"v. c #506BAF",
"b. c #665D8B",
"n. c #4D5BC4",
"m. c #505FCD",
"M. c #5366CA",
"N. c #597AC8",
"B. c #5C76D5",
"V. c #5465DE",
"C. c #596BE7",
"Z. c #5E74EC",
"A. c #5D77E7",
"S. c #627DED",
"D. c #617FE4",
"F. c #627EF1",
"G. c #877988",
"H. c #508294",
"J. c #538AA8",
"K. c #5A96AC",
"L. c #5892A9",
"P. c #5A97B7",
"I. c #5587AE",
"U. c #739CA7",
"Y. c #6DA9BE",
"T. c #6A909F",
"R. c #5B84C7",
"E. c #5E82D6",
"W. c #5D94C5",
"Q. c #6189D5",
"!. c #648DDC",
"~. c #6080DF",
"^. c #6B93CF",
"/. c #66ADC8",
"(. c #68B2CD",
"). c #77BCD3",
"_. c #6DB0D7",
"`. c #6486EB",
"'. c #6593E9",
"]. c #6A96EB",
"[. c #6584F1",
"{. c #698BF4",
"}. c #6789F3",
"|. c #6D94F4",
" X c #6F99F6",
".X c #6F97F8",
"XX c #709DF7",
"oX c #7099F9",
"OX c #6BA5ED",
"+X c #6DB0EC",
"@X c #6FB7E6",
"#X c #72B6EE",
"$X c #72BBEE",
"%X c #6DA2F1",
"&X c #71A4F5",
"*X c #72ACF3",
"=X c #72A5F9",
"-X c #72B4F1",
";X c #73B9F1",
":X c #5E92D2",
">X c #72C6E5",
",X c #74C4EC",
"<X c #74CBEB",
"1X c #78CBEA",
"2X c #76CBF1",
"3X c #8A8C89",
"4X c #ADA88C",
"5X c #8D93AB",
"6X c #DBB885",
"7X c #E1BE89",
"8X c #E6C899",
"9X c #EDC796",
"0X c #EACEA2",
"qX c #EDD2A3",
"wX c #CDCDB8",
"eX c #90B7CF",
"rX c #96ADDF",
"tX c #8FC2D1",
"yX c #89CCEC",
"uX c #88D1EE",
"iX c #97CDF2",
"pX c #95D5F2",
"aX c #A5D7F8",
"sX c #B4DBFC",
"dX c #ADD2EB",
"fX c #ACD2DE",
"gX c #CEDDFC",
"hX c #C3DEFF",
"jX c #D0DDFC",
"kX c #C5F7FF",
"lX c None",
/* pixels */
"lXlXlXlXlXlXlXlXlXlXlXlXlXlXlXlXlXlXlXlXlXlXlXlXlXlXlXlXlXlXlXlXlXlXlXlXlXlXlXlXlXlXlXlXlXlXlXlXlXlXlXlXlXlXlXlXlXlXlXlXlXlXlXlX",
"lXlXlXlXlXlXlXlXlXlXlXlXlXlXlXlXlXlXlXlXlXlXlXlXlXlXlXlXlXlXlXlXlXlXlXlXlXlXlXlXlXlXlXlXlXlXlXlXlXlXlXlXlXlXlXyXyXlXlXlXlXlXlXlX",
"lXlXlXlXlXlXlXlXlXlXlXlXlXlXlXlXlXlXlXlXlXlXlXlXlXlXlXlXlXlXlXlXlXlXlX^ ! lXlXlXlXlXlXlXlXlXlXlXlXlXlXlXlXuXpXyXlXlXlXlXlXlXlXlX",
"lXlXlXlXlXlXlXlXlXlXlXlXlXlXlXlXlXlXlXlXlXlXlXlXlXlXlXlXlXlXlXlXlXlX) W.`.w.lXlXlXlXlXlXlXlXlXlXlXlXlXlXlXpXyXiXlXyXuXyXlXlXlXlX",
"lXlXlXlXlXlXlXlXlXlXlXlXlXlXlXlXlXlXlXlXlXlXlXlXlXlXlXlXlXlXlXlXlX^ P.$X}.D.e.lXlXlXlXlXlXlXlXlXlXlXlXlXlXaXsXgXjXiXpXlXlXlXlXlX",
"lXlXlXlXlXlXlXlXlXlXlXlXlXlXlXlXlXlXlXlXlXlXlXlXlXlXlXlXlXlXlXlX/ j.%X*XXX[.E.^ B lXlXlXlXlXlXlXlXlXlXuXaXhXgXgXjXjXsXaXuXyXlXlX",
"lXlXlXlXlXlXlXlXlXlXlXlXlXlXlXlXlXlXlXlXlXlXlXlXlXlXlXlXlXlXlXV g.C.{. X!.E.c.r.B lXlXlXlXlXlXlXlXlXlXpXaXsXhXgXjXjXsXaXiXlXlXlX",
"lXlXlXlXlXlXlXlXlXlXlXlXlXlXlXlXlXlXlXlXlXlXlXlXlXlXlXlXlXlXlXP g.C.{. Xz.J c.p.8.M lXlXlXlXlXlXlXlXlXlXkXuXaXgXhXsXuXlXlXlXlXlX",
"lXlXlXlXlXlXlXlXlXlXlXlXlXlXlXlXlXlXlXlXlXlXlXlXlXlXlXlXlXlXf h n.Z.|.|.z.3 M L 8.8.F n lXlXlXlXlXlXlXlXuXtXtXfXsXaXuXlXlXlXlXlX",
"lXlXlXlXlXlXlXlXlXlXlXlXlXlXlXlXlXlXlXlXlXlXlXlXlXlXlXlXlXlXP f.Z.[.|. Xz.4 % N D Z n lXlXlXlXlXlXlXlXlXlXlX4XtXaXlXlXlXlXlXlXlX",
"lXlXlXlXlXlXlXlXlXlXlXlXlXlXlXlXlXlXlXlXlXlXlXlXlXlXlXlXlXf + g.S.[.{.oXz.n * % % 3 lXlXlXlXlXlXlXlXlXlXlXlX3X).uXlXlXlXlXlXlXlX",
"lXlXlXlXlXlXlXlXlXlXlXlXlXlXlXlXlXlXlXlXlXlXlXlXlXlXlXlXlXP h n.C.{.oXoXR.8.4 O 5 lXlXlXlXlXlXlXlXlXlXlXlXlXQ T.(.lXlXlXlXlXlXlX",
"lXlXlXlXlXlXlXlXlXlXlXlXlXlXlXlXlXlXlXlXlXlXlXlXlXlXlXlXf h j.Z.C.{.oXoX|.z.n , lXlXlXlXlXlXlXlXlXlXlXlXlXlXE  .s.lXlXlXlXlXlXlX",
"lXlXlXlXlXlXlXlXlXlXlXlXlXlXlXlXlXlXlXlXlXlXlXlXlXlXlXlXk f.Z.[.Z.|.oX X Xz.L B B lXlXlXlXlXlXlXlXlXlXlXlXlXP t q lXlXlXlXlXlXlX",
"lXlXlXlXlXlXlXlXlXlXlXlXlXlXlXlXlXlXlXlXlXlXlXlXlXlXlXlXg f.F.S.|.oXoXoX|.z.p.r.B k lXlXlXlXlXlXlXlXlXlXlXlXw e q lXlXlXlXlXlXlX",
"lXlXlXlXlXlXlXlXlXlXlXlXlXlXlXlXlXlXlXlXlXlXlXlXlXlXlXf h n.C.{.oXoXoXoX|.R.E.N.r.C M lXlXlXlXlXlXlXlXlXlXlX5 7 q lXlXlXlXlXlXlX",
"lXlXlXlXlXlXlXlXlXlXlXlXlXlXlXlXlXlXlXlXlXlXlXlXlXlXlXP f.Z.C.{.oXXXoXoXoXoXS.Q.i.Z , k c lXlXlXlXlXlXlXlXlX5 8 q lXlXlXlXlXlXlX",
"lXlXlXlXlXlXlXlXlXlXlXlXlXlXlXlXlXlXlXlXlXlXlXV a s & h M.}.S.|.&X&X*X*XXXoXoXz.F z l j.q.z H lXlXlXlXlXlXlX5 i q lXlXlXlXlXlXlX",
"lXlXlXlXlXlXlXlXlXlXlXlXlXlXlXlXlXlXlXlXlXlXV F z.v.H 6.k.h.:X*X$X<X>X<X+XN.z.F A M.S.S.A.V.f.f lXlXlXlXlXlX5 9 v lXlXlXlXlXlXlX",
"lXlXlXlXlXlXlXlXlXlXlXlXlXlXlXlXlXlXlXlXlXf B J._.*X'.u.J ) /.1X>X<X1X1X>Xt.) G N.%XXXXX{.C.6.6 lXlXlXlXlXlXg - q lXlXlXlXlXlXlX",
"lXlXlXlXlXlXlXlXlXlXlXlXlXlXlXlXlXlXlXlXlXm D P.@X#X,X<X<X$X$X$X$X;X$X;X$X,X<X<X$X-X|.`.Z.C.f.p lXlXlXlXlXlXP $ 0 lXlXlXlXlXlXlX",
"lXlXlXlXlXlXlXlXlXlXlXlXlXlXlXlXlXlXlXlXlXlX! Z N.}.].$X;X=XoX{.{.{.}.}.}.OXOXOX].}.Z.C.j.q.p f lXlXlXlXQ E , $ 1 lXlXlXlXlXlXlX",
"lXlXlXlXlXlXlXlXlXlXlXlXlXlXlXlXlXlXlXlXlXlXlX6 H 0.0.k.l.l.v.h.0.0.f.f.0.0.0.0.f.f.f.7.p T R lXlXlXlXI 4X8X#.E E 6 lXlXlXlXlXlX",
"lXlXlXlXlXlXlXlXlXlXlXlXlXlXlXlXlXlXlXlXlXlXlX` [ 5 % : & % ; 7 = % + : 7 & % % + % % % ' lXlXlX4 j l 2 -.9X0X8X2.I lXlXlXlXlXlX",
"lXlXlXlXlXlXlXlXlXlXlXlXlXlXlXlXlXlXlXlXlXlXlXlXlX_ v 9 8 7 y r - O : ..@.w * O : & : - 3X5X5X! f M.S.e.W 6X9X4.<.I lXlXlXlXlXlX",
"lXlXlXlXlXlXlXlXlXlXlXlXlXlXlXlXlXlXlXlXlXlXlXlXe.j.( 8 y { r = : 7 y =.4.&.w 8 r : y : * k p J x.`.[.g.#.6X4.3.<.I lXlXlXlXlXlX",
"lXlXlXlXlXlXlXlXlXlXlXlXlXlXlXlXlXlXlXlXlXlXlXP x 0.p t { ( 6 7 y X.+.2.8X4.&.@...7 @...b n.j F !.XXg.P *.6X4.3.<.I U lXlXlXlXlX",
"lXlXlXlXlXlXlXlXlXlXlXlXlXlXlXlXlXlXlXlXlXlXU + h < : r r / p t { &.<.2.,.3.3.=.u 8 *.>.b.m.j F !.].V y +.1.3.3.o.6 1 lXlXlXlXlX",
"lXlXlXlXlXlXlXlXlXlXlXlXlXlXlXlXlXlXlXlXlXlXT + x p 7 ( / A < 8 i u +.+.+.*.*...7 { <.1.W / p J !.].k y { O.o.+.0 + * lXlXlXlXlX",
"lXlXlXlXlXlXlXlXlXlXlXlXlXlXlXlXlXlXlXlXlXlXI o + # U M.+XOXk o O 8 u &.*...{ r i | >.3.>.i * J '.|.w.w y : : r ; j * 2 lXlXlXlX",
"lXlXlXlXlXlXlXlXlXlXlXlXlXlXlXlXlXlXlXlXlXm k ^ ^ 3 c.oX$X>Xi.* O % e w e e e -  .@.<.1.>.} ; J I.].].m 8 = = r ; j.5.a lXlXlXlX",
"lXlXlXlXlXlXlXlXlXlXlXlXlXlXlXlXlXlXlXlXg h N.XX|.A v..X*X,X'.i.4 O O O O O C ) #._ :.;.@.W 2 F i.!.XXw., % q y 6 j.C.v lXlXlXlX",
"lXlXlXlXlXlXlXlXlXlXlXlXlXlXlXlXlXlXm + j M..XoX{.z x B.oX$X$X$XH.) , O C ) (.$XP.u.%.s.E ~ a F 8.I..X|.k O y { ; j.V.k lXlXlXlX",
"lXlXlXlXlXlXlXlXlXlXlXlXlXlXm h x x l < k.{.oX{.S.q.< g.{.*X$X;X>X>XH.) /.1X$X&XE.u.D K ~ ) 3 d 8.x.~.{.k % y u ; j.f.g lXlXlXlX",
"lXlXlXlXlXlXlXlXlX_ _ I o o h j.S.S.Z.w.B.oX!.~.Q.h.p x B.}.[.|.+X;X,X<X$X-X&XQ.p.L 3 n ) 8.N > J c.`.N.g o q W 6 j.h 2 lXlXlXlX",
"lXlXlXlXlXlXlXlX%.L ) ) ) ) N.`.|.oX X[.E.R.p.c.i.3 4 1 g.j.M.S.|.oX*X;X&XXXQ.u.Z L N > F 8.8.3 n 8.c.u.k = = r ; x 1 * lXlXlXlX",
"lXlXlXlXlXlXlXa.P.<X<X<X<X<X$X-X+XoX|.oXR.p.8.8.r.B J s l 5.n.Z.E.R.R.].oXQ.i.8.B M L 3 D r.Z , c Z K r.8.4 7 r ; j < 3 lXlXlXlX",
"lXlXlXlXlXlXd.W.<X<XY.U.U.).<X$XeXfXrX|.E.i.8.8.8.r.8.3 j n.S.{.x.8.r.c.R.i.8.8.x.6.B > D D l 1 x x Z L 8.< - r ; x d lXlXlXlXlX",
"lXlXlXlXlXlX5X].L.H.T w e %.).1XwXqXrX[.R.u.D B K D K 9.B.C.S.|.z.Z K 8.8.x.c.u.c.w.p 3 J a H ` R 9.p f B * = r ; g lXlXlXlXlXlX",
"lXlXlXlXlXT ' b.V e : e & ; %.).fX0X5XZ.E.u.s % s > D :XoXA.Z.{.R.y.r.8.8.Q.oXz.L 3 % D D > & lXlXlX2 + % 5 5 8 0 lXlXlXlXlXlXlX",
"lXlXlXlXlX] e.v ..+.+.+...w e K.2XfXT.v.u.8.a   + j k.~.|.S.}. XoX$XP.L.8.E.!.u.D K 4 n & + & lXlXlXlX1 1 lX, = 2 lXlXlXlXlXlXlX",
"lXlXlXlXlX3X-.o.2.7X4.4.6X:.w _ ).>XJ.8.8.D n 5 z n.[.S.[.S.|. XoX*X2X<XW.R.p.8.8./.C O + % 3 lXlXlXlXlXlXlX, = 2 lXlXlXlXlXlXlX",
"lXlXlXlXT 9 6X0XqXqX4.6X8X0X-.w U.<XJ.8.D > lX$ l M.f.B.Z.Z.[.[.[..X*X-X-XW.J.K.).K.4 O ' s lXlXlXlXlXlXlXlX2 = 2 lXlXlXlXlXlXlX",
"lXlXlXlXlX( Q #.:.:.=.*.6X0X6XE _ ).J.Z > a lXlXg l 5.N.'.'.'.'.'.OX*X*X<X<X2X>XL.3 4 4 lXlXlXlXlXlXlXlXlXlX, = 2 lXlXlXlXlXlXlX",
"lXlXlXlXlXI ; I u { { { ,.8X8X-.w a.p.s 3 lXlXlX_ K R.$X<X<X<X<X<X<X<X2X<XK.H.H.C n K s lXlXlXlXlXlXlXlXlXlX* = 2 lXlXlXlXlXlXlX",
"lXlXlXlXI : O.3.,...i 9 O.3.8X8XQ ! D > lXlXlXy.R.,X<X<X<X<X<X<X<X<XL.t.H.s 3 n K 8.8.s lXlXlXlXlXlXlXlXlXlX* = ; lXlXlXlXlXlXlX",
"lXlXlXlXI 9 2.0X2...:   w =.8X8X&.P > g lXlX! L.2X<XK.(.K.(.<XK.t.t.6.H H H z.p.x.8.8.a ' lXlXlXlXlXlXlXlXlX* = 2 lXlXlXlXlXlXlX",
"lXlXlXlXlXE o.:.O.w w w I u :.;.u & 3 lXlXlX~ J H.H.) t.n K.<XC j ) R.k.n.`.@XW.E.R.u.Z > n lXlXlXlXlXlXlXlX# = 2 lXlXlXlXlXlXlX",
"lXlXlXlXlXlXI 9 9 q lXlXlXP E 9 0 4 lXlXlXlXP 5 2 C /.S S (.>XS v.-X>XC g.+X<X&X[.N.u.8.> & lXlXlXlXlXlXlXlX% # 2 lXlXlXlXlXlXlX",
"lXlXlXlXlXlXlX7 7 lXlXlXlXlXlX* lXlXlXlXlXT I [ v K.1XS K.<X>XS c.,X>XS g.+X<X&X|.z.8.8.B 6 lXlXlXlXlXlXlXlX# # 2 lXlXlXlXlXlXlX",
"lXlXlXlXlXlXlXlXlXlXlXlXlXlXlXlXlXlXlXlXU ~ G.( 4 L.<XJ./.1X1XC K.<X>XS g.+X<X%X.XR.I.u.8.3 f lXlXlXlXlXlXlX+   & lXlXlXlXlXlXlX",
"lXlXlXlXlXlXlXlXlXlXlXlXlXlXlXlXlXlXlXlXU ( d.R n Y.<X<X<X1XK.y.(.<X>XS g.+X<X*XoXoX`.N.u.N 6 lXlXlXlXlXlXlXlX% % lXlXlXlXlXlXlX",
"lXlXlXlXlXlXlXlXlXlXlXlXlXlXlXlXlXlXlXlXm v a.p.8.y.(.<X<XK.s K.<X<X#XZ g.+X<X&X.XoX[.|.z.z.V lXlXlXlXlXlXlXlXlXlXlXlXlXlXlXlXlX",
"lXlXlXlXlXlXlXlXlXlXlXlXlXlXlXlXlXlXlXlXlXP v.c.8.Z ) t.t.3 G (.<X<X].z g.+X<X-X XXX X XR.B.k f lXlXlXlXlXlXlXlXlXlXlXlXlXlXlXlX",
"lXlXlXlXlXlXlXlXlXlXlXlXlXlXlXlXlXlXlXlXlX' l.x.8.8.Z F H 9.(.<X<X>X`.j g.%X,X<X&XoXoXoXoX`.q.g lXlXlXlXlXlXlXlXlXlXlXlXlXlXlXlX",
"lXlXlXlXlXlXlXlXlXlXlXlXlXlXlXlXlXlXlXlXlX~ l.!.c.u.x.`.[.%X,X<X<X#Xk.< g.F.@X<X&X.X XoXoXoXC.k lXlXlXlXlXlXlXlXlXlXlXlXlXlXlXlX",
"lXlXlXlXlXlXlXlXlXlXlXlXlXlXlXlXlXlXlXlXlXR l.oXXXE.E.[.%X,X<X<X<X'.k % l m.+X<X&X*XXXoXoXoXA.k lXlXlXlXlXlXlXlXlXlXlXlXlXlXlXlX",
"lXlXlXlXlXlXlXlXlXlXlXlXlXlXlXlXlXlXlXlXlXV A !.oX*X{.%X,X<X<X<XOXA.j % * g.+X<X#X-X-XXXoX[.0.6 lXlXlXlXlXlXlXlXlXlXlXlXlXlXlXlX",
"lXlXlXlXlXlXlXlXlXlXlXlXlXlXlXlXlXlXlXlXlXg + c.oX*X-X-X,X<X<X+XD.0., % + g.%X,X<X#X-XXXoXA.h * lXlXlXlXlXlXlXlXlXlXlXlXlXlXlXlX",
"lXlXlXlXlXlXlXlXlXlXlXlXlXlXlXlXlXlXlXlXlXP O A i.B.&X&X%X-XOX`.f.< % % l 6.B.$X<X,X;X|.S.0.1 O 3 lXlXlXlXlXlXlXlXlXlXlXlXlXlXlX",
"lXlXlXlXlXlXlXlXlXlXlXlXlXlXlXlXlXlXlXlXC d M k M H 9.B.[.F.h.5.1     % l 6.M. X,X<X>Xi.5.< a M M p lXlXlXlXlXlXlXlXlXlXlXlXlXlX",
"lXlXlXlXlXlXlXlXlXlXlXlXlXlXlXlXlXlXlXY _ s.s.y.r.3 + l 5.5.@ d lXlXlX> + l 6.B.].'.z.4 s U _ s.s.N 1 lXlXlXlXlXlXlXlXlXlXlXlXlX",
"lXlXlXlXlXlXlXlXlXlXlXlXlXlXlXlXlXlXY [ G.G.G.s.r.3 O . X d lXlXlXlXlXlXd $ X l 9.5.< f _ G.G.G.G.s.h 1 lXlXlXlXlXlXlXlXlXlXlXlX",
"lXlXlXlXlXlXlXlXlXlXlXlXlXlXlXlXlXv v Y Y Y Y Y U , % g s lXlXlXlXlXlXlXlXlXR [ ] 5 + f R Y Y Y Y Y B + lXlXlXlXlXlXlXlXlXlXlXlX"
};
