/* XPM */
static char *Screen_Shot_2023_01_14_at_5_35_53_PM_removebg_preview1673714846[] = {
/* columns rows colors chars-per-pixel */
"64 64 194 2 ",
"   c None",
".  c #1F1716",
"X  c #241916",
"o  c #251B1A",
"O  c #2A1E1C",
"+  c #211717",
"@  c #2C201E",
"#  c #27201D",
"$  c #30221F",
"%  c #2B1E21",
"&  c #2E2423",
"*  c #2E2528",
"=  c #2E2827",
"-  c #322624",
";  c #392622",
":  c #332926",
">  c #3C2A26",
",  c #322628",
"<  c #352B2B",
"1  c #392D2D",
"2  c #3A312E",
"3  c #37302E",
"4  c #362F32",
"5  c #3B2E31",
"6  c #363132",
"7  c #3C3333",
"8  c #3E3836",
"9  c #3F3639",
"0  c #3E393A",
"q  c #452719",
"w  c #4C2A1A",
"e  c #4A291B",
"r  c #532E1C",
"t  c #512D17",
"y  c #56311E",
"u  c #5C341D",
"i  c #63371F",
"p  c #653B1F",
"a  c #402E2C",
"s  c #462C20",
"d  c #502F20",
"f  c #4B3124",
"g  c #4B342B",
"h  c #4D392F",
"j  c #533424",
"k  c #593625",
"l  c #5C3925",
"z  c #53362A",
"x  c #543A2C",
"c  c #5B3C2B",
"v  c #583629",
"b  c #403534",
"n  c #423935",
"m  c #4E3A33",
"M  c #423739",
"N  c #433B3B",
"B  c #4A3E3C",
"V  c #4A3630",
"C  c #533C34",
"Z  c #523E3A",
"A  c #583E34",
"S  c #613720",
"D  c #643B22",
"F  c #6A3E22",
"G  c #603F29",
"H  c #5E432F",
"J  c #46413E",
"K  c #4A413E",
"L  c #544035",
"P  c #5B4133",
"I  c #54423B",
"U  c #5C453A",
"Y  c #6C4224",
"T  c #64432B",
"R  c #6C4329",
"E  c #734425",
"W  c #774826",
"Q  c #7B4C27",
"!  c #744629",
"~  c #754A2B",
"^  c #7C4C2A",
"/  c #7E502C",
"(  c #634532",
")  c #6C4A33",
"_  c #624B3D",
"`  c #6A4431",
"'  c #734F33",
"]  c #7C5334",
"[  c #7B5539",
"{  c #7C583A",
"}  c #755036",
"|  c #443F41",
" . c #4B3F41",
".. c #454242",
"X. c #4B4443",
"o. c #4D4847",
"O. c #4D4749",
"+. c #4D4A4A",
"@. c #524543",
"#. c #524946",
"$. c #5C4C44",
"%. c #514748",
"&. c #534C4B",
"*. c #584E4B",
"=. c #5A514E",
"-. c #56514D",
";. c #4E4F50",
":. c #524E51",
">. c #584F51",
",. c #555253",
"<. c #5A5455",
"1. c #5C5956",
"2. c #575658",
"3. c #5A5759",
"4. c #5C5B5B",
"5. c #575956",
"6. c #644C40",
"7. c #64534B",
"8. c #6A574C",
"9. c #6C5A4E",
"0. c #665547",
"q. c #735D4E",
"w. c #615552",
"e. c #645957",
"r. c #6E5D53",
"t. c #625D5C",
"y. c #695E5D",
"u. c #695650",
"i. c #725D51",
"p. c #5E615E",
"a. c #63615E",
"s. c #6A615F",
"d. c #766355",
"f. c #5E5E61",
"g. c #635E61",
"h. c #685F60",
"j. c #656363",
"k. c #6A6464",
"l. c #676867",
"z. c #6C6866",
"x. c #65666A",
"c. c #6A6769",
"v. c #66696E",
"b. c #6C6A6C",
"n. c #706766",
"m. c #706768",
"M. c #726C6B",
"N. c #796E6E",
"B. c #73716E",
"V. c #6D6E72",
"C. c #726E71",
"Z. c #6F7176",
"A. c #6F7478",
"S. c #737274",
"D. c #797374",
"F. c #75757A",
"G. c #79777A",
"H. c #76797D",
"J. c #7A7A7E",
"K. c #7A7976",
"L. c #814E29",
"P. c #84522C",
"I. c #8A552D",
"U. c #8D592E",
"Y. c #86552B",
"T. c #835432",
"R. c #8B5931",
"E. c #8D5C39",
"W. c #807977",
"Q. c #827C7B",
"!. c #777C82",
"~. c #7B7D82",
"^. c #817F82",
"/. c #7E8185",
"(. c #7F8288",
"). c #838385",
"_. c #84868B",
"`. c #86898E",
"'. c #8A8C8E",
"]. c #8A8585",
"[. c #8F908F",
"{. c #858A91",
"}. c #8B8D92",
"|. c #8E9196",
" X c #8C9098",
".X c #929294",
"XX c #92959A",
"oX c #969899",
"OX c #999EA2",
"+X c #979AA0",
"@X c #9CA0A3",
"#X c #A3A4A3",
"$X c #A5A5A9",
"%X c #ACADB1",
/* pixels */
"                                                                                                                                ",
"                                                                                                                                ",
"                                                                                                                                ",
"                                                                                                                                ",
"                                                                                                                                ",
"                                                                                                                                ",
"                                                                                                                                ",
"                                                                                                                                ",
"                                                                                                                                ",
"                                                                                                                                ",
"                                                                                                                                ",
"                                                                                                                                ",
"                                                                                                                                ",
"                                      <     5 < 1 M 2 J n %.+.7 O.b X.7 5 5 <                                                   ",
"                                  < b k.&.N g.1 &.j.#.k.&.s.k.B t.#.t.%.w.j.| o.B 1 M                                           ",
"                              < >.y.X.b.3.B 4.7 *.j.m 2.X.&.3.K c.J 5.K &.j.X.t.,.h.j.1 ,                                       ",
"                          < %.X.1.k.J 1.p.n k.+.X.5.n ;.K 5.l.K 4.J <.B &.a.N j.<.z.<.K y.7 &                                   ",
"                        % &.S.<.n 4.&.K 5.2 4.#.X.&.n +.B J ,.7 ..7 ,.7 o.&.K l.*.4.o.t.p.K <.N *                               ",
"                      X.X.M <.4.o.&.t.8 o.1 9 7 < 6 : N < : 6 * = : 7 : 6 6 N +.B +.B z.,.#.l.X., 5                             ",
"                    1 g.C.o.2 ,.2.n J : * @ o o X o X X X X o X X X X X X @ & O : 7 M j.M k.4.< :.,.:                           ",
"                  7 | O.4.4.X.6 +.2 o + X & 8 X.<.4.y.g.f.,. .<.a.j.t.4.<.&.7 & + X * 3 N 4.7 J D.t.: *                         ",
"                , t.C.*.: J ,.7 O O o N c.`.|.XXXXXXXX X}.).2._.|.|.XXXX+XoX|.).l.N o X 3 n 7 4.<.7 %.&.=                       ",
"                , X.l.j.&.< < & . 4 S.XXXX}.).K.M.k.y.k._.^.2._.).h.z.m.M.G.).|.XX.Xc.= X @ K ..7 <.b.1.5                       ",
"              6 <.N = 9 <.<.: . 7 ).XX_.k.I g q w w q e ~.).2.).G.g d w w e g @.z.'.XX/.< # < b a.S.a.+.:                       ",
"              X.c.S.t.< : 7 : : ~.XX~.Z e k S F ! ^ D v ~.).<._.G.c F L.E u F w q @.).XXD.O @ X...8 1 2 M :                     ",
"              < +.p.j.5.B , o j.XX~.m r F ^ ^ ! L.I.F v J.^.<._.G.k ^ R.L.F I.Y i y I ). X&.X , N #.a.j.3.<                     ",
"            , < < < < 7 ..< * ).XXw.t ^ T.L.L.! ^ I.F v ~.~.e.`.D.j ^ R.^ F I.E E L.w t. XG.O < -.1.2...6 *                     ",
"            , 5.z.4.%.M < O N }.).A F I.L.L.L.F L.T.F z ~.).g._.G.j ! U.^ F I.Y W L.u B {._.3 @ 2 2 < < 4 *                     ",
"            : ,.p.4.2.4.:.@ O.}.C.v ~ R.P.^ P.E I.I.F z ^._.3._.G.j W I.Q Y U.R E Y.Y z J.'.K < <.j.l.B.a.<                     ",
"            & 2 7 N b b 1 o &.}.c.D ! E./ Q T.Y I.L.D x _.^.3._.G.z E I./ R U.Y ! Y.Y c S.`.K $ 7 8 J J 8 :                     ",
"            & o.j.b.s.5.1 X :.}.h.Y E I.T.^ Y.F I.Y.F A ~.~.<._.F.g W U.Q Y U.E E Y.Y l b.{.#.@ J o.a.s.t.n                     ",
"            & 9 o...J J : X :.}.h.T R T.~ [ T.F T.] ` C ~.~.<.).F.g ~ T.^ T R.R R / R c V._.o.: o.,.s.l.4.9                     ",
"            & : n #.*.=.M X :.`.A.y.B.k.b.M.B.S.z.K.k.b./.~.,.(.J.p.M.M.l.S.z.D.j.D.k.c.F._.X.O : : 7 B N $                     ",
"            & ..<.5.<.,.B o :.`.A.4.S.j.b.c.k.G.z.S.g.b./.~.:.^.~.f.b.c.l.b.g.C.4.D.4.V.!._.X.- <.j.b.M.j.0                     ",
"            & * 3 6 3 3 * X &.{.l.f j k j k H x ( v d n ~.J.:.^.H.n y l j j k j j k d g V._.X.O J X.X.J B :                     ",
"            : X.-.<.a.t.J X O.}.j.G p L.E ^ P.u ^ / p A /.H.O.~.F.g Y L.E p L.Y F L.F c V.). ., o.K K o.X.:                     ",
"            : o.<.p.S.S.-.@ ..`.x.T Y R.! T.Y.Y P./ ~ U !.F.O.~.H.V Q I.Q Y I.~ E I.~ ( C._.X.2 4.b.l.l.k.7                     ",
"            & : 3 7 B N < O .._.c.T Y I.! / Y.Y P.Q E U !.F...~.H.x Q I.E Y U.W Y R.E ( V._.X.@ N ..N n N 7                     ",
"            : &.<.&.&.o.9 o | {.x.T Y U.E P.L.E P.Q R U !.F.| ~.!.C ^ I.E F U.! E U.E ( D.{.N O 7 n K X.X.,                     ",
"            : 5.b.v.f.4.+.@ | _.v.7.9.q.9.i.i.9.9.i.u.e.~.C.0 ~.!.*.q.i.8.9.q.r.7.d.8.r.~.(.8 - ,.4.3.p.k.1                     ",
"            & N J 8 7 9 < O 0 `.H.x.~.V.!.A.V.~.b./.v.H./.V.M ~.~.x.S.H.Z.~.v./.x.(.V.!.!.(.7 O < 6 2 7 2 $                     ",
"            , K e.n.M.z.*.< N _.b.K Z A Z I Z Z C I Z &.!.S.9 G.!.X.C I L I L I C $.I #.V.).7 : 1.a.j.j.z.B                     ",
"            X.].@X#X.X[.].k.y.`.c.k y E i F Y i E D S A !.S.7 !.H.h Y E i i E i F ~ S c V.!.7 : ,.f.<.,.,.7                     ",
"            M.S.j.+.B n  .<.J.OXv.H F Y.~ P.P.Y P.^ ^ 6.~.C.7 H.G.A P.I.R Y U.E ! T.! ( C.~.7 O : 2 8 2 2 -                     ",
"            M.#.K y.W.Q.1.- t.%XD.G F P.E P.L.Y I.^ ^ 6.~.b.5 G.H.L ^ P.E E U.E E U.E ( S./.7 : <.l.k.z.k.N                     ",
"            w.1.]..X'.[.].#.B $X).G F P.W P.L.E I.! Q _ ~.b.5 !.H.P L.P.E E I.E E U.E P Z.).1 : ,.2.x.S.l.J o                   ",
"            7 %.Q.t.N N >.z.>.XX.X_ ( [ ) } } ) { ' ' $.~.V.1 F.H.I [ [ ) ) { ) ) { ) U Z.~.1 O , , 4 7 n <                     ",
"            b s.W.-.a.N.#.t.z.}.@Xz.J.V.J.A.V.G.b.~.b.H.).V.> F.!.x.F.D.V.G.b.~.b.J.v.F.!.~.1 O X.<.<.t.a.o.@                   ",
"            %.j.[.k.j.).=.w.M..XoX5.h.3.t.1.<.t.<.g.<.j.~.C.< F.G.3.4.e.w.y.>.h.:.j.:.y.G.~.< $ &.l.c.3.5.o.O                   ",
"            t.6 <.M.z.e.7 s.j.oX_.v r S r k i r S y y Z !.b.> G.F.m l S d j S j k i y x C.~.> O = 6 7 6 < : #                   ",
"            W.N.1.<.s.t.k.n.%.@XG.c p P.F L.^ F I.! Q _ !.b.> G.!.A P.P.F ! I.^ W Y.E P V.~.< $ J <.z.z.t.7                     ",
"            D.oX.XK.S.).].K B XXc.G Y P.F L.W E P.! ~ _ ~.z.; J.!.A L.L.F ! L.^ ! L.Y P V.~.: $ +.,.3.3.:...@                   ",
"            7 e.N.D.N.z.K O 1 ).v.*.*.8.7.7.7.7.7.7.7.>.~.b.> J.~.*.7.0.7.7.8.7.8.8.7.&.V.!.< O < 2 2 2 N < #                   ",
"            | a.z.B.k.a.K X 1 _.{.`.}.}.}.}.|.}.}.}.{._.}.C.a F.}._.}.`.}.}.}. X}.}.}._.`.~.> O &.b.x.j.z.1.n                   ",
"            5 ..+.%.....6 o > t.k.j.x.j.j.l.j.j.j.j.j.k.c.w.; <.k.j.j.j.j.c.c.x.j.x.c.h.k.4.- @ N o...,.4.+.#.                  ",
"            % o o o o O o                                                                     O # # & < K B                     ",
"                                                                                                                                ",
"                                                                                                                                ",
"                                                                                                                                ",
"                                                                                                                                ",
"                                                                                                                                ",
"                                                                                                                                ",
"                                                                                                                                ",
"                                                                                                                                "
};
