/* XPM */
static char *_6212_e211a2c7a2b1858c37c8dc41e1b3fa882c52fe857a7af8521379c916ef86b793_3[] = {
/* columns rows colors chars-per-pixel */
"64 64 256 2 ",
"   c None",
".  c #843B1E",
"X  c #AE401B",
"o  c #C3401B",
"O  c #D34716",
"+  c #E24F12",
"@  c #E95210",
"#  c #ED530D",
"$  c #F1560A",
"%  c #F65506",
"&  c #F65604",
"*  c #F75608",
"=  c #F6570B",
"-  c #F6580E",
";  c #F75A0C",
":  c #F85D0B",
">  c #F85E0C",
",  c #F85E0D",
"<  c #F75F0F",
"1  c #F65E11",
"2  c #F75F10",
"3  c #F86110",
"4  c #F86312",
"5  c #F96213",
"6  c #F96414",
"7  c #F96516",
"8  c #F86617",
"9  c #F86719",
"0  c #F8681A",
"q  c #F9691B",
"w  c #F8681D",
"e  c #FA6C1F",
"r  c #FA6D21",
"t  c #F96E22",
"y  c #F96E23",
"u  c #FA7126",
"i  c #FA7328",
"p  c #FA752A",
"a  c #FB762B",
"s  c #FB772C",
"d  c #FB782D",
"f  c #FC792E",
"g  c #FC792F",
"h  c #FB7A2F",
"j  c #FB7A30",
"k  c #FB7B30",
"l  c #FB7B31",
"z  c #FB7B32",
"x  c #FB7C33",
"c  c #FC7D34",
"v  c #FC8036",
"b  c #FD8038",
"n  c #FD8239",
"m  c #FE833A",
"M  c #FE833B",
"N  c #FE833C",
"B  c #FD843C",
"V  c #FD853E",
"C  c #FD853F",
"Z  c #FC8640",
"A  c #FC8740",
"S  c #FD8740",
"D  c #FD8841",
"F  c #FD8941",
"G  c #FE8941",
"H  c #FE8A42",
"J  c #FE8B43",
"K  c #FE8C43",
"L  c #FE8C44",
"P  c #FD8C44",
"I  c #883621",
"U  c #A6381B",
"Y  c #B33515",
"T  c #BE3D17",
"R  c #CD4517",
"E  c #D94B14",
"W  c #E65216",
"Q  c #EB5415",
"!  c #EE5514",
"~  c #F15610",
"^  c #F4550B",
"/  c #F55407",
"(  c #F65304",
")  c #F65605",
"_  c #F75908",
"`  c #F75A0A",
"'  c #F75B0B",
"]  c #F75D0C",
"[  c #F75D0E",
"{  c #F75E11",
"}  c #F65D12",
"|  c #F86012",
" . c #F96416",
".. c #F96518",
"X. c #F96618",
"o. c #F96719",
"O. c #FA661B",
"+. c #FA691D",
"@. c #F96A1E",
"#. c #F96B1F",
"$. c #FA6C20",
"%. c #FB6C21",
"&. c #FB6D22",
"*. c #FC6D24",
"=. c #FB6F24",
"-. c #FB7126",
";. c #FB7227",
":. c #FB7228",
">. c #FB7329",
",. c #FA7429",
"<. c #FB742A",
"1. c #FA762B",
"2. c #FB772D",
"3. c #FC782E",
"4. c #FC7A30",
"5. c #FC7B31",
"6. c #FC7C32",
"7. c #FC7D33",
"8. c #FC7E33",
"9. c #FC7E34",
"0. c #FD7F36",
"q. c #FD833B",
"w. c #FE853E",
"e. c #FE863E",
"r. c #FE863F",
"t. c #FD873F",
"y. c #FD883F",
"u. c #FD8840",
"i. c #FD8A41",
"p. c #FE8B42",
"a. c #FE8D44",
"s. c #92301D",
"d. c #9E2F1B",
"f. c #A82F19",
"g. c #AF2C17",
"h. c #B12B16",
"j. c #B52D16",
"k. c #BB3115",
"l. c #BF3314",
"z. c #C83811",
"x. c #D23D0E",
"c. c #DF450A",
"v. c #E84B09",
"b. c #EF4D04",
"n. c #F45102",
"m. c #F65202",
"M. c #F75202",
"N. c #F95203",
"B. c #FA5404",
"V. c #FA5505",
"C. c #F95605",
"Z. c #F95706",
"A. c #F75808",
"S. c #F6580A",
"D. c #F65B0E",
"F. c #F85E12",
"G. c #F85F14",
"H. c #F95F15",
"J. c #F95F16",
"K. c #F96016",
"L. c #F96116",
"P. c #F96316",
"I. c #F96315",
"U. c #F9671A",
"Y. c #F8681B",
"T. c #F8681C",
"R. c #F9691C",
"E. c #FA6A1D",
"W. c #FA6B1C",
"Q. c #F96C19",
"!. c #F96C1C",
"~. c #F96B1E",
"^. c #F96C20",
"/. c #F96D21",
"(. c #FA6E23",
"). c #FA7227",
"_. c #FA772B",
"`. c #FA782D",
"'. c #FA792E",
"]. c #FC7C31",
"[. c #FC7C33",
"{. c #FD8037",
"}. c #FD833A",
"|. c #FD843B",
" X c #FD853D",
".X c #FD863F",
"XX c #FE8840",
"oX c #FE8A41",
"OX c #B14211",
"+X c #D14D0C",
"@X c #E35108",
"#X c #EE5207",
"$X c #F35204",
"%X c #F55203",
"&X c #F75303",
"*X c #F85304",
"=X c #F95304",
"-X c #F95405",
";X c #F95707",
":X c #F85B0A",
">X c #F85E0E",
",X c #F86010",
"<X c #F86212",
"1X c #F96114",
"2X c #F96214",
"3X c #F96115",
"4X c #F96216",
"5X c #FA6316",
"6X c #FA6417",
"7X c #F96418",
"8X c #F46119",
"9X c #F96819",
"0X c #F9681A",
"qX c #F96A1C",
"wX c #F96B1C",
"eX c #FB6D21",
"rX c #FB6E22",
"tX c #FB6F23",
"yX c #FB7025",
"uX c #FB7026",
"iX c #FB7127",
"pX c #FA7228",
"aX c #FB732A",
"sX c #FB742B",
"dX c #FB762C",
"fX c #FB782E",
"gX c #FB7C32",
"hX c #FC7F35",
"jX c #FE8339",
"kX c #FE843A",
"lX c #FE843B",
"zX c #FE853C",
"xX c #FE863D",
"cX c #FE873E",
"vX c #FE8841",
"bX c #FE8942",
"nX c #FE8A43",
"mX c black",
"MX c black",
"NX c black",
"BX c black",
"VX c black",
"CX c black",
"ZX c black",
"AX c black",
"SX c black",
"DX c black",
"FX c black",
"GX c black",
"HX c black",
"JX c black",
"KX c black",
"LX c black",
"PX c black",
"IX c black",
"UX c black",
/* pixels */
"                                                                                                                                ",
"                                                                                                                                ",
"                                                                                                                                ",
"                                                                                                                                ",
"                                                                                                                                ",
"                                                                                                                                ",
"                                                                                                                                ",
"                                                                                                                                ",
"                                                                                                                                ",
"                                                                                                                                ",
"                                                                                                                                ",
"                                                                                                                                ",
"                                                                                                                                ",
"                                                                                                                                ",
"                                                                                                                                ",
"                                                                                                                                ",
"                                                                                                                                ",
"                                                                                                                                ",
"                                                                                                                                ",
"                                                      %                                                                         ",
"                                                      A.* ~                                                                     ",
"                                                    8X:X:XD.      &X&X                                                          ",
"                                                    3 | | | 1     / *                                                           ",
"                                                    7X......~     D.:X:X                                                        ",
"                                                  4 qX#.~.~.~ OXOX8X: G.>X                                                      ",
"                                                  4 $.tXyXyXw o R P.2X1X|                                                       ",
"                                                2 ..(.;.<.dX<.w w R.o. .,X                                                      ",
"                                                >X..(.aX2.j h 2.:.$.q  .2                                                       ",
"                                                [ I.e :.2.l l h <.r 0X .                                                        ",
"                                                { | U.=.sXj j d >.W.X.                                                          ",
"                                                  1 I.W.-.s d dX=.q                                                             ",
"                                                    2 U.r -.:.yXw                                                               ",
"                                                      ! 0XW.$.~.9                                                               ",
"                                                        8XX.X...w                                                               ",
"                                                        4X4X4X2X                                                                ",
"                                                      1 2X4XP. .W                                                               ",
"                                                    D.| P.X.0XqX9 { `                                                           ",
"                                                    ^ 2XX.R.r yXr ..|                                                           ",
"                                                  ( :X .q r >.d <.r X.1 8X                                                      ",
"                                                  &X: X.r :.h 7.gXa (.0X1 2                                                     ",
"                                                ^ ;X| q yXfX{.lXm c d yX0X3                                                     ",
"                                                ^ : ..r a 9.xXvXvXzXhXs r ..1                                                   ",
"                                              $X' I.e <.l m XXJ nXvXlX6.>.qX| 8X                                                ",
"                                              : 3 0XiXj hXxXbXL L H cX{.dXr ..>X                                                ",
"                                              >XX.(.fXhXkXXXJ L L L G lXj -.0XK.S.                                              ",
"                                            1 2XW.<.c lXcXH L L L L J e.c <.W.2X:X$                                             ",
"                                            1 U.yXh n XXG J L L L L L XX{.2.(...:XD.                                            ",
"                                          } I.W.<.9.e.nXJ L L L L L L G n j -.U.>XD.                                            ",
"                                          [ 7 r 2.{.cXL L L L L L L L H lXgX>.R.1X[                                             ",
"                                          >XX.tXfXn G L L L L L L L L J cX9.a $. .8X                                            ",
"                                        ~ G.0XyXj M H L L L L L L L L K G n fX(.X.8X                                            ",
"                                          2 0XyXj }.G L L L L L L L L L bXm j -.0X| ~                                           ",
"                                          W X.(.fXn XXJ L L L L L L L L H m l -.0XF.S.                                          ",
"                                          ~ 4 e sXc zXvXH K L L L L L J G n h yXU.2                                             ",
"                                            8Xo.(.dX9.lXcXvXH J L L J G xXhXdXr 4                                               ",
"                                            ~ | 0X(.a gX{.lXxXXXXXG vXxXn j -.0X2                                               ",
"                                              } 2Xo.$.:.dXj c {.b n {.7.fX-.E.8                                                 ",
"                                                ~ 1 7XE.(.-.>.dXfXfXs >.(.@.8                                                   ",
"                                                    ! 8X8 0XW.r (.(.(.e R.9                                                     ",
"                                                          9 ..9 9 R.R.                                                          ",
"                                                                                                                                ",
"                                                                                                                                ",
"                                                                                                                                ",
"                                                                                                                                "
};
