/* XPM */
static char *_6212_e211a2c7a2b1858c37c8dc41e1b3fa882c52fe857a7af8521379c916ef86b793_21[] = {
/* columns rows colors chars-per-pixel */
"64 64 128 2 ",
"   c #A44D21",
".  c #B3501F",
"X  c #C3531C",
"o  c #CF551A",
"O  c #DE5819",
"+  c #E65A18",
"@  c #EA5B18",
"#  c #EC5C17",
"$  c #EE5B15",
"%  c #F25B14",
"&  c #F35B14",
"*  c #F35912",
"=  c #F4580E",
"-  c #F4560D",
";  c #F5550A",
":  c #F55509",
">  c #F55408",
",  c #F45508",
"<  c #F45507",
"1  c #F55806",
"2  c #F55905",
"3  c #F45A07",
"4  c #F65B09",
"5  c #F75C0A",
"6  c #F85D0B",
"7  c #F85D0C",
"8  c #F95F0B",
"9  c #F95E0D",
"0  c #F95E0D",
"q  c #FA5E0F",
"w  c #FA5F10",
"e  c #FA5F11",
"r  c #F96011",
"t  c #FA6012",
"y  c #F96214",
"u  c #F96214",
"i  c #F96216",
"p  c #F96416",
"a  c #F96517",
"s  c #F96618",
"d  c #FA671A",
"f  c #FA691C",
"g  c #FA691E",
"h  c #F96A1F",
"j  c #F96D22",
"k  c #FA6F24",
"l  c #FA6F24",
"z  c #FA7025",
"x  c #FA7227",
"c  c #FA7429",
"v  c #FA752A",
"b  c #FB762B",
"n  c #FB772C",
"m  c #FC772C",
"M  c #FC772D",
"N  c #FD762E",
"B  c #FC782E",
"V  c #FC792E",
"C  c #FB7B30",
"Z  c #FB7C31",
"A  c #FB7D32",
"S  c #FB7E34",
"D  c #FC7F35",
"F  c #FC7F36",
"G  c #FD8036",
"H  c #FC8037",
"J  c #FC8137",
"K  c #FC8138",
"L  c #FC8239",
"P  c #FC823A",
"I  c #FC833B",
"U  c #FC833C",
"Y  c #FD853D",
"T  c #FD863E",
"R  c #FD8740",
"E  c #FD8942",
"W  c #FE8A42",
"Q  c #FE8B43",
"!  c #FE8C43",
"~  c #FE8C44",
"^  c #FE8D44",
"/  c None",
"(  c black",
")  c black",
"_  c black",
"`  c black",
"'  c black",
"]  c black",
"[  c black",
"{  c black",
"}  c black",
"|  c black",
" . c black",
".. c black",
"X. c black",
"o. c black",
"O. c black",
"+. c black",
"@. c black",
"#. c black",
"$. c black",
"%. c black",
"&. c black",
"*. c black",
"=. c black",
"-. c black",
";. c black",
":. c black",
">. c black",
",. c black",
"<. c black",
"1. c black",
"2. c black",
"3. c black",
"4. c black",
"5. c black",
"6. c black",
"7. c black",
"8. c black",
"9. c black",
"0. c black",
"q. c black",
"w. c black",
"e. c black",
"r. c black",
"t. c black",
"y. c black",
"u. c black",
/* pixels */
"/ / / / / / / / / / / / / / / / / / / / / / / / / / / / / / / / / / / / / / / / / / / / / / / / / / / / / / / / / / / / / / / / ",
"/ / / / / / / / / / / / / / / / / / / / / / / / / / / / / / / / / / / / / / / / / / / / / / / / / / / / / / / / / / / / / / / / ",
"/ / / / / / / / / / / / / / / / / / / / / / / / / / / / / / / / / / / / / / / / / / / / / / / / / / / / / / / / / / / / / / / / ",
"/ / / / / / / / / / / / / / / / / / / / / / / / / / / / / / / / / / / / / / / / / / / / / / / / / / / / / / / / / / / / / / / / ",
"/ / / / / / / / / / / / / / / / / / / / / / / / / / / / / / / / / / / / / / / / / / / / / / / / / / / / / / / / / / / / / / / / ",
"/ / / / / / / / / / / / / / / / / / / / / / / / / / / / / / / / / / / / / / / / / / / / / / / / / / / / / / / / / / / / / / / / ",
"/ / / / / / / / / / / / / / / / / / / / / / / / / / / / / / / / / / / / / / / / / / / / / / / / / / / / / / / / / / / / / / / / ",
"/ / / / / / / / / / / / / / / / / / / / / / / / / / / / / / / / / / / / / / / / / / / / / / / / / / / / / / / / / / / / / / / / ",
"/ / / / / / / / / / / / / / / / / / / / / / / / / / / / / / / / / / / / / / / / / / / / / / / / / / / / / / / / / / / / / / / / ",
"/ / / / / / / / / / / / / / / / / / / / / / / / / / / / / / / / / / / / / / / / / / / / / / / / / / / / / / / / / / / / / / / / ",
"/ / / / / / / / / / / / / / / / / / / / / / / / / / / / / / / / / / / / / / / / / / / / / / / / / / / / / / / / / / / / / / / / ",
"/ / / / / / / / / / / / / / / / / / / / / / / / / / / / / / / / / / / / / / / / / / / / / / / / / / / / / / / / / / / / / / / / ",
"/ / / / / / / / / / / / / / / / / / / / / / / / / / / / / / / / / / / / / / / / / / / / / / / / / / / / / / / / / / / / / / / / ",
"/ / / / / / / / / / / / / / / / / / / / / / / / / / / / / / / / / / / / / / / / / / / / / / / / / / / / / / / / / / / / / / / / ",
"/ / / / / / / / / / / / / / / / / / / / / / / / / / / / / / / / / / / / / / / / / / / / / / / / / / / / / / / / / / / / / / / / ",
"/ / / / / / / / / / / / / / / / / / / / / / / / / / / / / / / / / / / / / / / / / / / / / / / / / / / / / / / / / / / / / / / / ",
"/ / / / / / / / / / / / / / / / / / / / / / / / / / / / / / / / / / / / / / / / / / / / / / / / / / / / / / / / / / / / / / / / ",
"/ / / / / / / / / / / / / / / / / / / / / / / / / / / / / / / / / / / / / / / / / / / / / / / / / / / / / / / / / / / / / / / / ",
"/ / / / / / / / / / / / / / / / / / / / / / / / / / / / / / / / / / / / / / / / / / / / / / / / / / / / / / / / / / / / / / / / ",
"/ / / / / / / / / / / / / / / / / / / / / / / / / / / / / / / / / % - / / / / / / / / / / / / / / / / / / / / / / / / / / / / / ",
"/ / / / / / / / / / / / / / / / / / / / / / / / / / / / / / / * % 1 - / / / / / / / / / / / / / / / / / / / / / / / / / / / / / ",
"/ / / / / / / / / / / / / / / / / / / / / / / / / / / / / / 4 5 7 4 / / / / / / / / / / / / / / / / / / / / / / / / / / / / / / ",
"/ / / / / / / / / / / / / / / / / / / / / / / / / / / / / 5 y r y r / / / / / / / / / / / / / / / / / / / / / / / / / / / / / / ",
"/ / / / / / / / / / / / / / / / / / / / / / / / / / / / & y s d d a 5 / / / / / / / / / / / / / / / / / / / / / / / / / / / / / ",
"/ / / / / / / / / / / / / / / / / / / / / / / / / / / / 4 a g h h f 4 / / / / / / / / / / / / / / / / / / / / / / / / / / / / / ",
"/ / / / / / / / / / / / / / / / / / / / / / / / / / / / 5 p h k k g s r / , / / / / / / / / / / / / / / / / / / / / / / / / / / ",
"/ / / / / / / / / / / / / / / / / / / / / / / / / / / / 4 y f k z k g p / : % / / / / / / / / / / / / / / / / / / / / / / / / / ",
"/ / / / / / / / / / / / / / / / / / / / / / / / / / / / 3 7 s h k k h a & - - / / / / / / / / / / / / / / / / / / / / / / / / / ",
"/ / / / / / / / / / / / / / / / / / / / / / / / / / / / / 5 y d h g d p 7 * / / / / / / / / / / / / / / / / / / / / / / / / / / ",
"/ / / / / / / / / / / / / / / / / / / / / / / / / / / / / / / 5 p a p y 9 2 / / / / / / / / / / / / / / / / / / / / / / / / / / ",
"/ / / / / / / / / / / / / / / / / / / / / / / / / / / / / / / / 5 r r 8 4 / / / / / / / / / / / / / / / / / / / / / / / / / / / ",
"/ / / / / / / / / / / / / / / / / / / / / / / / / / / , / / / / 4 5 5 4 / / : , / / / / / / / / / / / / / / / / / / / / / / / / ",
"/ / / / / / / / / / / / / / / / / / / / / / / / / / - : : / / / = 1 * & / / : , / / / / / / / / / / / / / / / / / / / / / / / / ",
"/ / / / / / / / / / / / / / / / / / / / / / / / / / 2 1 * / / / ; > ; / / / , > / / / / / / / / / / / / / / / / / / / / / / / / ",
"/ / / / / / / / / / / / / / / / / / / / / / / / / / 3 5 7 7 / / 1 : - / / - : : / / / / / / / / / / / / / / / / / / / / / / / / ",
"/ / / / / / / / / / / / / / / / / / / / / / / / / 7 r t p s y 4 7 5 4 / / 2 4 2 / / / / / / / / / / / / / / / / / / / / / / / / ",
"/ / / / / / / / / / / / / / / / / / / / / / / / 4 r p d g k h d p p a a y 9 7 4 / / / / / / / / / / / / / / / / / / / / / / / / ",
"/ / / / / / / / / / / / / / / / / / / / / / / / 5 i d h z b b z j j j f a t r 4 / / / / / / / / / / / / / / / / / / / / / / / / ",
"/ / / / / / / / / / / / / / / / / / / / / / / / 3 p f k b Z A V n n b z g s 5 / / / / / / / / / / / / / / / / / / / / / / / / / ",
"/ / / / / / / / / / / / / / / / / / / / / / / / / p g x V P Y L F F S n k f s / / / / / / / / / / / / / / / / / / / / / / / / / ",
"/ / / / / / / / / / / / / / / / / / / / / / / / / p g c Z Y E R T T Y S b j s / / / / / / / / / / / / / / / / / / / / / / / / / ",
"/ / / / / / / / / / / / / / / / / / / / / / / / / p g b S T ! W W W E L V z s / / / / / / / / / / / / / / / / / / / / / / / / / ",
"/ / / / / / / / / / / / / / / / / / / / / / / / % a j n F R ~ ^ ^ ! E Y C x f 4 / / / / / / / / / / / / / / / / / / / / / / / / ",
"/ / / / / / / / / / / / / / / / / / / / / / / / 5 s x C L R ~ ^ ^ ^ W T D b g p % / / / / / / / / / / / / / / / / / / / / / / / ",
"/ / / / / / / / / / / / / / / / / / / / / / / % p j b D Y W ^ ^ ^ ^ Q R L V k s 5 / / / / / / / / / / / / / / / / / / / / / / / ",
"/ / / / / / / / / / / / / / / / / / / / / / % r d x C L R Q ^ ^ ^ ^ ^ E U Z c g r $ / / / / / / / / / / / / / / / / / / / / / / ",
"/ / / / / / / / / / / / / / / / / / / / / / 2 y j b S Y E ! ^ ^ ^ ^ ^ Q T D b j p % / / / / / / / / / / / / / / / / / / / / / / ",
"/ / / / / / / / / / / / / / / / / / / / / % 7 s k V K R W ^ ^ ^ ^ ^ ^ ~ E H n k s 4 / / / / / / / / / / / / / / / / / / / / / / ",
"/ / / / / / / / / / / / / / / / / / / / / 3 r f x C Y W ! ^ ^ ^ ^ ^ ^ ^ E K n k s 5 / / / / / / / / / / / / / / / / / / / / / / ",
"/ / / / / / / / / / / / / / / / / / / / / * y g c A T ! ^ ^ ^ ^ ^ ^ ^ ^ E K n k d 7 % / / / / / / / / / / / / / / / / / / / / / ",
"/ / / / / / / / / / / / / / / / / / / / / % y h v A R ^ ^ ^ ^ ^ ^ ^ ^ ! E H n k s 5 $ / / / / / / / / / / / / / / / / / / / / / ",
"/ / / / / / / / / / / / / / / / / / / / / 4 y h c A T Q ^ ^ ^ ^ ^ ^ ^ W T S b h y 4 / / / / / / / / / / / / / / / / / / / / / / ",
"/ / / / / / / / / / / / / / / / / / / / / # r f x C Y W ! ^ ^ ^ ^ ^ Q E I C x d r 3 / / / / / / / / / / / / / / / / / / / / / / ",
"/ / / / / / / / / / / / / / / / / / / / / / 5 a k n H T E Q ^ ~ ! W R Y D b j p 7 1 % / / / / / / / / / / / / / / / / / / / / / ",
"/ / / / / / / / / / / / / / / / / / / / / / 4 y f x V H U T T T T Y L A n k s r 4 - / / / / / / / / / / / / / / / / / / / / / / ",
"/ / / / / / / / / / / / / / / / / / / / / / = 7 p h x n C A A A Z C n c j d y 5 1 - / / / / / / / / / / / / / / / / / / / / / / ",
"/ / / / / / / / / / / / / / / / / / / / / / + 3 9 p f k x c c c c x k h s y 5 2 - / / / / / / / / / / / / / / / / / / / / / / / ",
"/ / / / / / / / / / / / / / / / / / / / / / / # 2 7 r a h h h h h f s y 8 4 2 - / / / / / / / / / / / / / / / / / / / / / / / / ",
"/ / / / / / / / / / / / / / / / / / / / / / / / @ * 5 7 r y y y y r 7 5 3 * $ / / / / / / / / / / / / / / / / / / / / / / / / / ",
"/ / / / / / / / / / / / / / / / / / / / / / / / / / % * % $ 2 3 4 2 = % / / / / / / / / / / / / / / / / / / / / / / / / / / / / ",
"/ / / / / / / / / / / / / / / / / / / / / / / / / / / / / / / / / / / / / / / / / / / / / / / / / / / / / / / / / / / / / / / / ",
"/ / / / / / / / / / / / / / / / / / / / / / / / / / / / / / / / / / / / / / / / / / / / / / / / / / / / / / / / / / / / / / / / ",
"/ / / / / / / / / / / / / / / / / / / / / / / / / / / / / / / / / / / / / / / / / / / / / / / / / / / / / / / / / / / / / / / / ",
"/ / / / / / / / / / / / / / / / / / / / / / / / / / / / / / / / / / / / / / / / / / / / / / / / / / / / / / / / / / / / / / / / "
};
