/* XPM */
static char *_6212_e211a2c7a2b1858c37c8dc41e1b3fa882c52fe857a7af8521379c916ef86b793_0[] = {
/* columns rows colors chars-per-pixel */
"64 64 256 2 ",
"   c None",
".  c #843B1E",
"X  c #AE401B",
"o  c #C3401B",
"O  c #D34716",
"+  c #E24F12",
"@  c #E95210",
"#  c #ED530D",
"$  c #F1560A",
"%  c #F65506",
"&  c #F65604",
"*  c #F75608",
"=  c #F6570B",
"-  c #F6580E",
";  c #F75A0C",
":  c #F85D0B",
">  c #F85E0C",
",  c #F85E0D",
"<  c #F75F0F",
"1  c #F65E11",
"2  c #F75F10",
"3  c #F86110",
"4  c #F86312",
"5  c #F96213",
"6  c #F96414",
"7  c #F96516",
"8  c #F86617",
"9  c #F86719",
"0  c #F8681A",
"q  c #F9691B",
"w  c #F8681D",
"e  c #FA6C1F",
"r  c #FA6D21",
"t  c #F96E22",
"y  c #F96E23",
"u  c #FA7126",
"i  c #FA7328",
"p  c #FA752A",
"a  c #FB762B",
"s  c #FB772C",
"d  c #FB782D",
"f  c #FC792E",
"g  c #FC792F",
"h  c #FB7A2F",
"j  c #FB7A30",
"k  c #FB7B30",
"l  c #FB7B31",
"z  c #FB7B32",
"x  c #FB7C33",
"c  c #FC7D34",
"v  c #FC8036",
"b  c #FD8038",
"n  c #FD8239",
"m  c #FE833A",
"M  c #FE833B",
"N  c #FE833C",
"B  c #FD843C",
"V  c #FD853E",
"C  c #FD853F",
"Z  c #FC8640",
"A  c #FC8740",
"S  c #FD8740",
"D  c #FD8841",
"F  c #FD8941",
"G  c #FE8941",
"H  c #FE8A42",
"J  c #FE8B43",
"K  c #FE8C43",
"L  c #FE8C44",
"P  c #FD8C44",
"I  c #883621",
"U  c #A6381B",
"Y  c #B33515",
"T  c #BE3D17",
"R  c #CD4517",
"E  c #D94B14",
"W  c #E65216",
"Q  c #EB5415",
"!  c #EE5514",
"~  c #F15610",
"^  c #F4550B",
"/  c #F55407",
"(  c #F65304",
")  c #F65605",
"_  c #F75908",
"`  c #F75A0A",
"'  c #F75B0B",
"]  c #F75D0C",
"[  c #F75D0E",
"{  c #F75E11",
"}  c #F65D12",
"|  c #F86012",
" . c #F96416",
".. c #F96518",
"X. c #F96618",
"o. c #F96719",
"O. c #FA661B",
"+. c #FA691D",
"@. c #F96A1E",
"#. c #F96B1F",
"$. c #FA6C20",
"%. c #FB6C21",
"&. c #FB6D22",
"*. c #FC6D24",
"=. c #FB6F24",
"-. c #FB7126",
";. c #FB7227",
":. c #FB7228",
">. c #FB7329",
",. c #FA7429",
"<. c #FB742A",
"1. c #FA762B",
"2. c #FB772D",
"3. c #FC782E",
"4. c #FC7A30",
"5. c #FC7B31",
"6. c #FC7C32",
"7. c #FC7D33",
"8. c #FC7E33",
"9. c #FC7E34",
"0. c #FD7F36",
"q. c #FD833B",
"w. c #FE853E",
"e. c #FE863E",
"r. c #FE863F",
"t. c #FD873F",
"y. c #FD883F",
"u. c #FD8840",
"i. c #FD8A41",
"p. c #FE8B42",
"a. c #FE8D44",
"s. c #92301D",
"d. c #9E2F1B",
"f. c #A82F19",
"g. c #AF2C17",
"h. c #B12B16",
"j. c #B52D16",
"k. c #BB3115",
"l. c #BF3314",
"z. c #C83811",
"x. c #D23D0E",
"c. c #DF450A",
"v. c #E84B09",
"b. c #EF4D04",
"n. c #F45102",
"m. c #F65202",
"M. c #F75202",
"N. c #F95203",
"B. c #FA5404",
"V. c #FA5505",
"C. c #F95605",
"Z. c #F95706",
"A. c #F75808",
"S. c #F6580A",
"D. c #F65B0E",
"F. c #F85E12",
"G. c #F85F14",
"H. c #F95F15",
"J. c #F95F16",
"K. c #F96016",
"L. c #F96116",
"P. c #F96316",
"I. c #F96315",
"U. c #F9671A",
"Y. c #F8681B",
"T. c #F8681C",
"R. c #F9691C",
"E. c #FA6A1D",
"W. c #FA6B1C",
"Q. c #F96C19",
"!. c #F96C1C",
"~. c #F96B1E",
"^. c #F96C20",
"/. c #F96D21",
"(. c #FA6E23",
"). c #FA7227",
"_. c #FA772B",
"`. c #FA782D",
"'. c #FA792E",
"]. c #FC7C31",
"[. c #FC7C33",
"{. c #FD8037",
"}. c #FD833A",
"|. c #FD843B",
" X c #FD853D",
".X c #FD863F",
"XX c #FE8840",
"oX c #FE8A41",
"OX c #B14211",
"+X c #D14D0C",
"@X c #E35108",
"#X c #EE5207",
"$X c #F35204",
"%X c #F55203",
"&X c #F75303",
"*X c #F85304",
"=X c #F95304",
"-X c #F95405",
";X c #F95707",
":X c #F85B0A",
">X c #F85E0E",
",X c #F86010",
"<X c #F86212",
"1X c #F96114",
"2X c #F96214",
"3X c #F96115",
"4X c #F96216",
"5X c #FA6316",
"6X c #FA6417",
"7X c #F96418",
"8X c #F46119",
"9X c #F96819",
"0X c #F9681A",
"qX c #F96A1C",
"wX c #F96B1C",
"eX c #FB6D21",
"rX c #FB6E22",
"tX c #FB6F23",
"yX c #FB7025",
"uX c #FB7026",
"iX c #FB7127",
"pX c #FA7228",
"aX c #FB732A",
"sX c #FB742B",
"dX c #FB762C",
"fX c #FB782E",
"gX c #FB7C32",
"hX c #FC7F35",
"jX c #FE8339",
"kX c #FE843A",
"lX c #FE843B",
"zX c #FE853C",
"xX c #FE863D",
"cX c #FE873E",
"vX c #FE8841",
"bX c #FE8942",
"nX c #FE8A43",
"mX c black",
"MX c black",
"NX c black",
"BX c black",
"VX c black",
"CX c black",
"ZX c black",
"AX c black",
"SX c black",
"DX c black",
"FX c black",
"GX c black",
"HX c black",
"JX c black",
"KX c black",
"LX c black",
"PX c black",
"IX c black",
"UX c black",
/* pixels */
"                                                                                                                                ",
"                                                                                                                                ",
"                                                                                                                                ",
"                                                                                                                                ",
"                                                                                                                                ",
"                                                                                                                                ",
"                                                                                                                                ",
"                                                                                                                                ",
"                                                                                                                                ",
"                                                                                                                                ",
"                                                                                                                                ",
"                                                                                                                                ",
"                                                                                                                                ",
"                                                                                                                                ",
"                                                                                                                                ",
"                                                                  #X                                                            ",
"                                                                ! $X                                                            ",
"                                                                ^ & + $                                                         ",
"                                                                & & Q &                                                         ",
"                                                              $ & /                                                             ",
"                                                              $ ) $                                                             ",
"                                                              ^ $X                                                              ",
"                                                                                                                                ",
"                                                                                                                                ",
"                                                        ^ ^         )                                                           ",
"                                                      [ _ S.^       )                                                           ",
"                                                    } ,X,X,X}       & $                                                         ",
"                                                  [ 4 X.8 7 I.~   o / /                                                         ",
"                                                  1 o.(.(.e o.! X k.) * =                                                       ",
"                                                2 7 r ,.a i (.Q T + ' ` ; _                                                     ",
"                                                3 q u h [.j a u 8XU.5 3 >X'                                                     ",
"                                              } 4 ~.,.[.n hXj s ,.r 0X .3 '                                                     ",
"                                              D.4 #.,.7.M m hXgXh ).e 9 5 '                                                     ",
"                                              D.3 R.).k n B q.n x a (.0X3 '                                                     ",
"                                              8X>XX.(.d v q.B B 9.s r X.2                                                       ",
"                                                } 3 R.i z n q.}.7.,.~.4 1                                                       ",
"                                                  1 7 r dX9.v 9.fX(.9 4                                                         ",
"                                                    8XR.u h x l a ^.8                                                           ",
"                                                    [ 7 r a f d i qX8                                                           ",
"                                                    S.<XqXi d d i qX8X                                                          ",
"                                                    $X<X~.i 3.fXa r 8X^                                                         ",
"                                                  $X; 4 $.a j l h ).@.3 ^                                                       ",
"                                                ! = >XU.u fX9.v c d u 0X3 [ !                                                   ",
"                                              ! ^ ' 6 /.a [.n B n 7.s u R.8 G.@ R                                               ",
"                                              / ; <XqXi j n .XS .X}.9.fX).^.R.4 1                                               ",
"                                            $ _ 3 0Xu h v  XD H G S q.v j a u R.4 2                                             ",
"                                          c.S.,Xo.(.2.hX Xu.H L J H D V n 9.fXu R.4                                             ",
"                                          S.>XX.(.s c B D H L L L L J bXS  Xn h u 0X8                                           ",
"                                        ^ D.<X~.p 7.}.S H L L L L L L K H F .XhXa r 9                                           ",
"                                        D.>XX.(.fXb .XF L L L L L L L L J J F n d (.9                                           ",
"                                        D.,X0Xu j q.S J L L L L L L L L L J D b d (.o.                                          ",
"                                        ~ ,X0Xu j q.S G J L L L L L L L J G .XhXa ^.7                                           ",
"                                          ] 8 ^.a 9.B t.F J K L L L L H D .Xn h u 0X3                                           ",
"                                          ^ ,XX.r a 7.n B S F H L L K F .Xn gX,.~.4 1                                           ",
"                                            D.,Xo./.,.h 9.n V D H J F .Xn [.a /.8 2                                             ",
"                                              ! ,X7 ~.u a l hXq.V .XB v l ,.r 7 1                                               ",
"                                                @X[ <X9X$.).s j [.[.5.d ).~.7 8X                                                ",
"                                                  # _ ,X .q /.u ,.,.).(.R.4 ,X                                                  ",
"                                                    $XS.' 3 8 0XqX@.@.8 8                                                       ",
"                                                          ~ ~ 2 4 8 8                                                           ",
"                                                                                                                                ",
"                                                                                                                                ",
"                                                                                                                                ",
"                                                                                                                                "
};
