/* XPM */
static char *_6212_e211a2c7a2b1858c37c8dc41e1b3fa882c52fe857a7af8521379c916ef86b793_24[] = {
/* columns rows colors chars-per-pixel */
"64 64 128 2 ",
"   c #BD5924",
".  c #D3561A",
"X  c #E75E16",
"o  c #F15E15",
"O  c #F65C0F",
"+  c #F75A0C",
"@  c #F85C0E",
"#  c #F85F0F",
"$  c #F76010",
"%  c #F76211",
"&  c #F76512",
"*  c #F86414",
"=  c #F96414",
"-  c #F96415",
";  c #F96316",
":  c #F96217",
">  c #F86317",
",  c #F86418",
"<  c #F96418",
"1  c #F96419",
"2  c #F8651B",
"3  c #F9661A",
"4  c #F96719",
"5  c #F8681A",
"6  c #F8691B",
"7  c #F86A1C",
"8  c #F86B1C",
"9  c #F96B1D",
"0  c #F96B1E",
"q  c #F96C1E",
"w  c #FA6D21",
"e  c #FA6F23",
"r  c #FB7025",
"t  c #FB7126",
"y  c #FB7127",
"u  c #FB7328",
"i  c #FB7329",
"p  c #FB742A",
"a  c #FB752B",
"s  c #FB762C",
"d  c #FB772D",
"f  c #FB782E",
"g  c #FB7A30",
"h  c #FB7A30",
"j  c #FB7B31",
"k  c #FB7C32",
"l  c #FB7D33",
"z  c #FB7D34",
"x  c #FC7F35",
"c  c #FC8138",
"v  c #FD833A",
"b  c #FD833A",
"n  c #FD843B",
"m  c #FD843C",
"M  c #FD843C",
"N  c #FD853D",
"B  c #FD853E",
"V  c #FD863F",
"C  c #FD873F",
"Z  c #FD873E",
"A  c #FD8740",
"S  c #FD8842",
"D  c #FD8942",
"F  c #FD8A42",
"G  c #FE8B43",
"H  c #FE8C43",
"J  c #FE8D43",
"K  c #FE8C44",
"L  c #FD8C45",
"P  c None",
"I  c black",
"U  c black",
"Y  c black",
"T  c black",
"R  c black",
"E  c black",
"W  c black",
"Q  c black",
"!  c black",
"~  c black",
"^  c black",
"/  c black",
"(  c black",
")  c black",
"_  c black",
"`  c black",
"'  c black",
"]  c black",
"[  c black",
"{  c black",
"}  c black",
"|  c black",
" . c black",
".. c black",
"X. c black",
"o. c black",
"O. c black",
"+. c black",
"@. c black",
"#. c black",
"$. c black",
"%. c black",
"&. c black",
"*. c black",
"=. c black",
"-. c black",
";. c black",
":. c black",
">. c black",
",. c black",
"<. c black",
"1. c black",
"2. c black",
"3. c black",
"4. c black",
"5. c black",
"6. c black",
"7. c black",
"8. c black",
"9. c black",
"0. c black",
"q. c black",
"w. c black",
"e. c black",
"r. c black",
"t. c black",
"y. c black",
"u. c black",
/* pixels */
"P P P P P P P P P P P P P P P P P P P P P P P P P P P P P P P P P P P P P P P P P P P P P P P P P P P P P P P P P P P P P P P P ",
"P P P P P P P P P P P P P P P P P P P P P P P P P P P P P P P P P P P P P P P P P P P P P P P P P P P P P P P P P P P P P P P P ",
"P P P P P P P P P P P P P P P P P P P P P P P P P P P P P P P P P P P P P P P P P P P P P P P P P P P P P P P P P P P P P P P P ",
"P P P P P P P P P P P P P P P P P P P P P P P P P P P P P P P P P P P P P P P P P P P P P P P P P P P P P P P P P P P P P P P P ",
"P P P P P P P P P P P P P P P P P P P P P P P P P P P P P P P P P P P P P P P P P P P P P P P P P P P P P P P P P P P P P P P P ",
"P P P P P P P P P P P P P P P P P P P P P P P P P P P P P P P P P P P P P P P P P P P P P P P P P P P P P P P P P P P P P P P P ",
"P P P P P P P P P P P P P P P P P P P P P P P P P P P P P P P P P P P P P P P P P P P P P P P P P P P P P P P P P P P P P P P P ",
"P P P P P P P P P P P P P P P P P P P P P P P P P P P P P P P P P P P P P P P P P P P P P P P P P P P P P P P P P P P P P P P P ",
"P P P P P P P P P P P P P P P P P P P P P P P P P P P P P P P P P P P P P P P P P P P P P P P P P P P P P P P P P P P P P P P P ",
"P P P P P P P P P P P P P P P P P P P P P P P P P P P P P P P P P P P P P P P P P P P P P P P P P P P P P P P P P P P P P P P P ",
"P P P P P P P P P P P P P P P P P P P P P P P P P P P P P P P P P P P P P P P P P P P P P P P P P P P P P P P P P P P P P P P P ",
"P P P P P P P P P P P P P P P P P P P P P P P P P P P P P P P P P P P P P P P P P P P P P P P P P P P P P P P P P P P P P P P P ",
"P P P P P P P P P P P P P P P P P P P P P P P P P P P P P P P P P P P P P P P P P P P P P P P P P P P P P P P P P P P P P P P P ",
"P P P P P P P P P P P P P P P P P P P P P P P P P P P P P P P P P P P P P P P P P P P P P P P P P P P P P P P P P P P P P P P P ",
"P P P P P P P P P P P P P P P P P P P P P P P P P P P P P P P P P P P P P P P P P P P P P P P P P P P P P P P P P P P P P P P P ",
"P P P P P P P P P P P P P P P P P P P P P P P P P P P P P P P P P P P P P P P P P P P P P P P P P P P P P P P P P P P P P P P P ",
"P P P P P P P P P P P P P P P P P P P P P P P P P P P P P P P P P P O P P P P P P P P P P P P P P P P P P P P P P P P P P P P P ",
"P P P P P P P P P P P P P P P P P P P P P P P P P P P P P P P P P o O P P P P P P P P P P P P P P P P P P P P P P P P P P P P P ",
"P P P P P P P P P P P P P P P P P P P P P P P P P P P P P P P P X O # o P P P P P P P P P P P P P P P P P P P P P P P P P P P P ",
"P P P P P P P P P P P P P P P P P P P P P P P P P P P P P P P P O 2 2 o . O P P P P P P P P P P P P P P P P P P P P P P P P P P ",
"P P P P P P P P P P P P P P P P P P P P P P P P P P P P P P P & 0 q 9 & X O P P P P P P P P P P P P P P P P P P P P P P P P P P ",
"P P P P P P P P P P P P P P P P P P P P P P P P P P P P P P & 9 e r e 9 > O P P P P P P P P P P P P P P P P P P P P P P P P P P ",
"P P P P P P P P P P P P P P P P P P P P P P P P P P P P P P % 0 r t r 9 % P P P P P P P P P P P P P P P P P P P P P P P P P P P ",
"P P P P P P P P P P P P P P P P P P P P P P P P P P P P P P > 6 q e q & P P P P P P P P P P P P P P P P P P P P P P P P P P P P ",
"P P P P P P P P P P P P P P P P P P P P P P P P P P P P P P % < 4 4 5 , P P P P P P P P P P P P P P P P P P P P P P P P P P P P ",
"P P P P P P P P P P P P P P P P P P P P P P P P P P P P P P P > > > > P P P P P P P P P P P P P P P P P P P P P P P P P P P P P ",
"P P P P P P P P P P P P P P P P P P P P P P P P P P P P P P P P O O P P P P P P P P P P P P P P P P P P P P P P P P P P P P P P ",
"P P P P P P P P P P P P P P P P P P P P P P P P P P P P O P P P P P P P P P P P P P P P P P P P P P P P P P P P P P P P P P P P ",
"P P P P P P P P P P P P P P P P P P P P P P P P P P P + O P P P P P P P P P P P P P P P P P P P P P P P P P P P P P P P P P P P ",
"P P P P P P P P P P P P P P P P P P P P P P P P P P X O + O P P P P P P P P P P P P P P P P P P P P P P P P P P P P P P P P P P ",
"P P P P P P P P P P P P P P P P P P P P P P P P P $ O > # o P P P P P P P P P P P P P P P P P P P P P P P P P P P P P P P P P P ",
"P P P P P P P P P P P P P P P P P P P P P P P P O , 5 5 2 O P P P O + P P P P P P P P P P P P P P P P P P P P P P P P P P P P P ",
"P P P P P P P P P P P P P P P P P P P P P P P P > 9 w w q & . P P o + P P P P P P P P P P P P P P P P P P P P P P P P P P P P P ",
"P P P P P P P P P P P P P P P P P P P P P P P O 2 w u p u e X   X + + P P P P P P P P P P P P P P P P P P P P P P P P P P P P P ",
"P P P P P P P P P P P P P P P P P P P P P P P O , w i d s i y 6 > # @ P P P P P P P P P P P P P P P P P P P P P P P P P P P P P ",
"P P P P P P P P P P P P P P P P P P P P P P P O > 4 r a d d s e 5 - % P P P P P P P P P P P P P P P P P P P P P P P P P P P P P ",
"P P P P P P P P P P P P P P P P P P P P P P P o # , q u s f j d e 9 P P P P P P P P P P P P P P P P P P P P P P P P P P P P P P ",
"P P P P P P P P P P P P P P P P P P P P P P P P O $ 4 e p g x l s e 9 P P P P P P P P P P P P P P P P P P P P P P P P P P P P P ",
"P P P P P P P P P P P P P P P P P P P P P P P P P P , q u j c c k i 9 > O P P P P P P P P P P P P P P P P P P P P P P P P P P P ",
"P P P P P P P P P P P P P P P P P P P P P P P P P P $ 5 t g v m x d e < O P P P P P P P P P P P P P P P P P P P P P P P P P P P ",
"P P P P P P P P P P P P P P P P P P P P P P P P P P $ 6 u j v V m k u 9 % P P P P P P P P P P P P P P P P P P P P P P P P P P P ",
"P P P P P P P P P P P P P P P P P P P P P P P P P o * w a x N S A c f e 3 O P P P P P P P P P P P P P P P P P P P P P P P P P P ",
"P P P P P P P P P P P P P P P P P P P P P P P P X O 4 t g c A F F N z a q * O P P P P P P P P P P P P P P P P P P P P P P P P P ",
"P P P P P P P P P P P P P P P P P P P P P P P P O 2 w f x N D H G V c g t 4 # o P P P P P P P P P P P P P P P P P P P P P P P P ",
"P P P P P P P P P P P P P P P P P P P P P P P O * q p l v A F J G S n x d e 2 # o P P P P P P P P P P P P P P P P P P P P P P P ",
"P P P P P P P P P P P P P P P P P P P P P P O # 4 y j v C D H J H D C v l a q * O P P P P P P P P P P P P P P P P P P P P P P P ",
"P P P P P P P P P P P P P P P P P P P P P P $ - w d x V D G J J J G D V v j u 9 > O P P P P P P P P P P P P P P P P P P P P P P ",
"P P P P P P P P P P P P P P P P P P P P P P # 4 u j m S F J J J J J G D V c g e 4 o P P P P P P P P P P P P P P P P P P P P P P ",
"P P P P P P P P P P P P P P P P P P P P P o , w d x V F J J J J J J J G D N z p 0 > o P P P P P P P P P P P P P P P P P P P P P ",
"P P P P P P P P P P P P P P P P P P P P P # 4 r g v S H J J J J J J J J F A c d e 3 O P P P P P P P P P P P P P P P P P P P P P ",
"P P P P P P P P P P P P P P P P P P P P P O 9 t j n F J J J J J J J J J H D v f e 4 O P P P P P P P P P P P P P P P P P P P P P ",
"P P P P P P P P P P P P P P P P P P P P P $ 9 t j m D J J J J J J J J J G D c f e 4 o P P P P P P P P P P P P P P P P P P P P P ",
"P P P P P P P P P P P P P P P P P P P P P O 4 r g v S G J J J J J J H F D V x s w < o P P P P P P P P P P P P P P P P P P P P P ",
"P P P P P P P P P P P P P P P P P P P P P O , w s x N S F H J J H F D A N c g r 4 > O P P P P P P P P P P P P P P P P P P P P P ",
"P P P P P P P P P P P P P P P P P P P P P P O 5 e f x m C S F F D A B c x f t 9 * $ O P P P P P P P P P P P P P P P P P P P P P ",
"P P P P P P P P P P P P P P P P P P P P P P o > 4 e s k c v N N n c x g a e 4 > @ O P P P P P P P P P P P P P P P P P P P P P P ",
"P P P P P P P P P P P P P P P P P P P P P P P o > 4 w u d g j j j f a r q 3 > O o P P P P P P P P P P P P P P P P P P P P P P P ",
"P P P P P P P P P P P P P P P P P P P P P P P P o $ , 9 e y u i y e q 5 - $ O P P P P P P P P P P P P P P P P P P P P P P P P P ",
"P P P P P P P P P P P P P P P P P P P P P P P P P P o o & 4 7 9 4 3 > $ O o P P P P P P P P P P P P P P P P P P P P P P P P P P ",
"P P P P P P P P P P P P P P P P P P P P P P P P P P P P P O o O # $ O P P P P P P P P P P P P P P P P P P P P P P P P P P P P P ",
"P P P P P P P P P P P P P P P P P P P P P P P P P P P P P P P P P P P P P P P P P P P P P P P P P P P P P P P P P P P P P P P P ",
"P P P P P P P P P P P P P P P P P P P P P P P P P P P P P P P P P P P P P P P P P P P P P P P P P P P P P P P P P P P P P P P P ",
"P P P P P P P P P P P P P P P P P P P P P P P P P P P P P P P P P P P P P P P P P P P P P P P P P P P P P P P P P P P P P P P P ",
"P P P P P P P P P P P P P P P P P P P P P P P P P P P P P P P P P P P P P P P P P P P P P P P P P P P P P P P P P P P P P P P P "
};
