/* XPM */
static char *undefined___Imgur1673709342[] = {
/* columns rows colors chars-per-pixel */
"64 64 25 1 ",
"  c #328903",
". c #318603",
"X c #318703",
"o c #318803",
"O c #308303",
"+ c #328803",
"@ c #318503",
"# c #308403",
"$ c #2F8103",
"% c #2E7F02",
"& c #2E7E02",
"* c #2F8203",
"= c #308503",
"- c #2E7E03",
"; c #308203",
": c #2D7D03",
"> c #2D7C03",
", c #2E7F03",
"< c #2F8003",
"1 c #2E8003",
"2 c #2D7B03",
"3 c #2B7702",
"4 c #2B7502",
"5 c #2B7602",
"6 c white",
/* pixels */
"          .XoOX           .XoOX           .XoOX           .XoOX ",
"        +@###$X         +@###$X         +@###$X         +@###$X ",
" +O  $.   X%&.   +O  $.   X%&.   +O  $.   X%&.   +O  $.   X%&.  ",
"  *=OO     .=     *=OO     .=     *=OO     .=     *=OO     .=   ",
"  +-;      +O#    +-;      +O#    +-;      +O#    +-;      +O#  ",
"   X+X+ +. +:>,<+  X+X+ +. +:>,<+  X+X+ +. +:>,<+  X+X+ +. +:>1,",
"     X@+=X  =>>.     X@+=X  =>>.     X@+=X  =>>.     X@+=X  =>>.",
"      @#X    -=       @#X    -=       @#X    -=       @#X    -= ",
"      +X              +X              +X              +X        ",
"X              +X              +X              +X               ",
"+.X             +.X             +.X             +.X             ",
"X*O=++$+ O.     X*O=++$+ O.     X*O=++$+ O.     X*O=++$+ O.     ",
" @*Oo.*#@>@      @*Oo.*#@>@      @*Oo.*#@>@      @*Oo.*#@>@     ",
" +O+XO-222X      +O+XO-222X      +O+XO-222X      +O+XO-222X     ",
"      X34X    .X      X34X    .X      X34X    .X      X34X    .X",
"       .=o=  X=        .=o=  X=        .=o=  X=        .=o=  X= ",
"         +@X+OX          +@X+OX          +@X+OX          +@X+OX ",
"        +@##O$X         +@##O$X         +@##O$X         +@##O$X ",
" +O  $.   X%&.   +O  $.   X%&.   +O  $.   X%&.   +O  $.   X%&.  ",
"  *=OO     .=     *=OO     .=     *=OO     .=     *=OO     .=   ",
"  +-;      +O#    +-;      +O#    +-;      +O#    +-;      +O#  ",
"   X+X+ +. +:>,<+  X+X+ +. +:>,<+  X+X+ +. +:>,<+  X+X+ +. +:>1,",
"     X@+=X  =>>.     X@+=X  =>>.     X@+=X  =>>.     X@+=X  =>>.",
"      @#X    -=       @#X    -=       @#X    -=       @#X    -= ",
"      +X              +X              +X              +X        ",
"X              +X              +X              +X               ",
"+.X             +.X             +.X             +.X             ",
"X*O=++$+ O.     X*O=++$+ O.     X*O=++$+ O.     X*O=++$+ O.     ",
" @*Oo.*#@>@      @*Oo.*#@>@      @*Oo.*#@>@      @*Oo.*#@>@     ",
" +O+XO-222X      +O+XO-222X      +O+XO-222X      +O+XO-222X     ",
"      X34X    .X      X34X    .X      X34X    .X      X34X    .X",
"       .=o=  X=        .=o=  X=        .=o=  X=        .=o=  X= ",
"         +@X+OX          +@X+OX          +@X+OX          +@X+OX ",
"        +@##O$X         +@##O$X         +@##O$X         +@##O$X ",
" +O  $.   X%&.   +O  $.   X%&.   +O  $.   X%&.   +O  $.   X%&.  ",
"  *=OO     .=     *=OO     .=     *=OO     .=     *=OO     .=   ",
"  +-;      +O#    +-;      +O#    +-;      +O#    +-;      +O#  ",
"   X+X+ +. +:>,<+  X+X+ +. +:>,<+  X+X+ +. +:>,<+  X+X+ +. +:>1,",
"     X@+=X  =>>.     X@+=X  =>>.     X@+=X  =>>.     X@+=X  =>>.",
"      @#X    -=       @#X    -=       @#X    -=       @#X    -= ",
"      +X              +X              +X              +X        ",
"X              +X              +X              +X               ",
"+.X             +.X             +.X             +.X             ",
"X*O=++$+ O.     X*O=++$+ O.     X*O=++$+ O.     X*O=++$+ O.     ",
" @*Oo.*#@>@      @*Oo.*#@>@      @*Oo.*#@>@      @*Oo.*#@>@     ",
" +O+XO-222X      +O+XO-222X      +O+XO-222X      +O+XO-222X     ",
"      X34X    .X      X34X    .X      X34X    .X      X34X    .X",
"       .=o=  X=        .=o=  X=        .=o=  X=        .=o=  X= ",
"         +@X+OX          +@X+OX          +@X+OX          +@X+OX ",
"        +@##O$X         +@##O$X         +@##O$X         +@##O$X ",
" +O  $.   X%&.   +O  $.   X%&.   +O  $.   X%&.   +O  $.   X%&.  ",
"  *=OO     .=     *=OO     .=     *=OO     .=     *=OO     .=   ",
"  +-;      +O#    +-;      +O#    +-;      +O#    +-;      +O#  ",
"   X+X+ +. +:>,<+  X+X+ +. +:>,<+  X+X+ +. +:>,<+  X+X+ +. +:>1,",
"     X@+=X  =>>.     X@+=X  =>>.     X@+=X  =>>.     X@+=X  =>>.",
"      @#X    -=       @#X    -=       @#X    -=       @#X    -= ",
"      +X              +X              +X              +X        ",
"X              +X              +X              +X               ",
"+.X             +.X             +.X             +.X             ",
"X*O=++$+ O.     X*O=++$+ O.     X*O=++$+ O.     X*O=++$+ O.     ",
" @*Oo.*#@>@      @*Oo.*#@>@      @*Oo.*#@>@      @*Oo.*#@>@     ",
" +O+XO-222X      +O+XO-222X      +O+XO-222X      +O+XO-222X     ",
"      X35X    .X      X35X    .X      X35X    .X      X35X    .X",
"       .#X=  X#        .#X=  X#        .#X=  X#        .#X=  X#+"
};
