/* XPM */
static char *result[] = {
/* columns rows colors chars-per-pixel */
"64 64 250 2 ",
"   c #0D0D0D",
".  c #040404",
"X  c #18090C",
"o  c #0D1405",
"O  c #0F1805",
"+  c #111A05",
"@  c #19150A",
"#  c #141313",
"$  c #1A1916",
"%  c #1C1C1B",
"&  c #1A1513",
"*  c #160B10",
"=  c #230A0E",
"-  c #22150D",
";  c #2C1A0D",
":  c #251A0B",
">  c #240511",
",  c #2C0615",
"<  c #2A0A14",
"1  c #330416",
"2  c #3C051B",
"3  c #3A0A1A",
"4  c #350917",
"5  c #281914",
"6  c #351814",
"7  c #311B0F",
"8  c #192806",
"9  c #1E3206",
"0  c #1A2310",
"q  c #29270C",
"w  c #35260E",
"e  c #243C05",
"r  c #27380A",
"t  c #37380B",
"y  c #24241B",
"u  c #3B2213",
"i  c #372616",
"p  c #2B3717",
"a  c #242424",
"s  c #2A2A2A",
"d  c #292825",
"f  c #302E2D",
"g  c #342B23",
"h  c #373328",
"j  c #343434",
"k  c #3C3B3B",
"l  c #3B3734",
"z  c #4D031D",
"x  c #47091B",
"c  c #53021F",
"v  c #58031F",
"b  c #46191A",
"n  c #57181C",
"m  c #5A2E09",
"M  c #562C08",
"N  c #46390E",
"B  c #5E330A",
"V  c #4B2C19",
"C  c #442817",
"Z  c #552D1B",
"A  c #542618",
"S  c #473916",
"D  c #533313",
"F  c #583719",
"G  c #45250D",
"H  c #62350D",
"J  c #66390F",
"K  c #653A13",
"L  c #6B3D12",
"P  c #653919",
"I  c #723C19",
"U  c #570020",
"Y  c #5A0221",
"T  c #521721",
"R  c #7B0332",
"E  c #690D28",
"W  c #472823",
"Q  c #473929",
"!  c #563925",
"~  c #403F3E",
"^  c #473B32",
"/  c #512221",
"(  c #693B22",
")  c #783722",
"_  c #732A29",
"`  c #294505",
"'  c #2B4A04",
"]  c #2A4608",
"[  c #38490B",
"{  c #335306",
"}  c #375709",
"|  c #354818",
" . c #3B5617",
".. c #2E4711",
"X. c #3A4922",
"o. c #5B4415",
"O. c #4F4D0E",
"+. c #6B411B",
"@. c #6A4516",
"#. c #724316",
"$. c #744519",
"%. c #7C4C1C",
"&. c #774919",
"*. c #685415",
"=. c #785819",
"-. c #6A4C0B",
";. c #48671E",
":. c #7A6513",
">. c #6D650F",
",. c #5B4429",
"<. c #465926",
"1. c #46433C",
"2. c #574B36",
"3. c #484A2A",
"4. c #69472A",
"5. c #774A26",
"6. c #6C5639",
"7. c #705131",
"8. c #4A6525",
"9. c #53692B",
"0. c #54722C",
"q. c #5B7634",
"w. c #556F33",
"e. c #687338",
"r. c #3F3F40",
"t. c #434242",
"y. c #4C4C4B",
"u. c #494846",
"i. c #585448",
"p. c #545353",
"a. c #5C5C5C",
"s. c #5B5954",
"d. c #504F4E",
"f. c #6A5B4F",
"g. c #6A624B",
"h. c #786646",
"j. c #66625B",
"k. c #7D7356",
"l. c #646261",
"z. c #6D6B66",
"x. c #706E68",
"c. c #74726D",
"v. c #7C7862",
"b. c #7A7876",
"n. c #830136",
"m. c #8F3A2C",
"M. c #834D1C",
"N. c #87571D",
"B. c #98561C",
"V. c #A35D1F",
"C. c #866717",
"Z. c #8B7512",
"A. c #967916",
"S. c #8B760F",
"D. c #875225",
"F. c #975A22",
"G. c #855B36",
"H. c #844822",
"J. c #8B6935",
"K. c #A96323",
"L. c #AD6C23",
"P. c #A96024",
"I. c #CA7326",
"U. c #876848",
"Y. c #94734B",
"T. c #8A7754",
"R. c #9B7B54",
"E. c #887148",
"W. c #857E6F",
"Q. c #936E4C",
"!. c #688639",
"~. c #6F923F",
"^. c #5F8233",
"/. c #719342",
"(. c #7BA047",
"). c #9C8412",
"_. c #99840E",
"`. c #A48D0C",
"'. c #A78613",
"]. c #AD950D",
"[. c #BB9A16",
"{. c #DEB019",
"}. c #D59B24",
"|. c #F0CA00",
" X c #978752",
".X c #AB8457",
"XX c #B48E5A",
"oX c #9A8966",
"OX c #86837D",
"+X c #9B9475",
"@X c #948C69",
"#X c #A7986A",
"$X c #B99668",
"%X c #AA8B61",
"&X c #B8A977",
"*X c #B0A577",
"=X c #CDB355",
"-X c #C29D6B",
";X c #CAA776",
":X c #C6B97E",
">X c #C3B67C",
",X c #D1AC73",
"<X c #E1B651",
"1X c #F6D072",
"2X c #8B8984",
"3X c #97938C",
"4X c #9B9A96",
"5X c #918D88",
"6X c #A29D95",
"7X c #B39F83",
"8X c #A9A59D",
"9X c #B0A98A",
"0X c #AAA8A5",
"qX c #B9B4AB",
"wX c #B7B7B5",
"eX c #B1ADA3",
"rX c #CABD83",
"tX c #C3B786",
"yX c #DAB886",
"uX c #C5B28E",
"iX c #E2BF8A",
"pX c #C3BEB5",
"aX c #CEC187",
"sX c #D3C68D",
"dX c #D7C996",
"fX c #DDD19A",
"gX c #CEC599",
"hX c #E7C28D",
"jX c #EDCA96",
"kX c #F1CD9A",
"lX c #E8D39D",
"zX c #C7C4BC",
"xX c #D9CDA8",
"cX c #E5D9A3",
"vX c #EBDAA8",
"bX c #F4D4A8",
"nX c #F5D9B4",
"mX c #F7DAB3",
"MX c #EAD0AA",
"NX c #EEE2AE",
"BX c #EEE3B0",
"VX c #F2E6B3",
"CX c #F4E8B6",
"ZX c #F5E9B8",
"AX c #F0E4AF",
"SX c #CBCAC6",
"DX c #D3CDC1",
"FX c #D5D1C8",
"GX c #D6D5D3",
"HX c None",
/* pixels */
"HXHXHXHXHXHXHXHXHXHXHXHXHXHXHXHXHXHXHXHXHXHXHXHXHXHXHXHXHXHXHXHXHXHXHXHXHXHXHXHXHXHXHXHXHXHXHXHXHXHXHXHXHXHXHXHXHXHXHXHXHXHXHXHX",
"HXHXHXHXHXHXHXHXHXHXHXHXHXHXHXHXHXHXHXHXHXHXHXHXHXHXHXHXHXHXk r.s % % % a % % % HXHXHXHXHXHXHXHXHXHXHXHXHXHXHXHXHXHXHXHXHXHXHXHX",
"HXHXHXHXHXHXHXHXHXHXHXHXHXHXHXHXHXHXHXHXHXHXHXHXHXHXHXHXHXj l s % % % % % % % % % % % # HXHXHXHXHXHXHXHXHXHXg.HXHXHXHXHXHXHXHXHX",
"HXHXHXHXHXHXHXHXHXHXz.HXHXHXHXHXHXHXHXHXHXHXHXHXHXHXHXHXj k u.s s s d d a a a % % % % # HXHXHXHXHXHXHXHX+XgXcXgX+XHXHXHXHXHXHXHX",
"HXHXHXHXHXHXHXHXb.wX4XHXHXHXHXHXHXHXHXHXHXHXHXHXHXHXHXs j d.j d s f f f j s s s s s a #   HXHXHXHXHXHX+XCXVXfXsXfX9XHXHXHXHXHXHX",
"HXHXHXHXHXHXd.8XSXzXc.HXHXHXHXHXHXHXHXHXHXHXHXHXHXHXa f p.r.a a j l l f s j j j j s a # # HXHXHXHXHX2.xXZXZXAXsX9XdX@XHXHXHXHXHX",
"HXHXHXHXHXa.wXSXwX2Xs HXHXHXHXHXHXHXHXHXHXHXHXHXHXHXa d.y.% r.OX0XqXqX6Xc.t.s j j f s % $ # HXHXv.9X*XBXNXNXZXNX:XsX*XHXHXHXHXHX",
"HXHXHXHXa.wXSXwXc.a # HXHXHXHXHXHXHXHXHXHXHXHXHXHX# r.p.s z.pXFXFXDXFXFXFXwXc.s s f s s $ # $ k.xXZXZXCXAXsXfXAX:X:XtX@X@XHXHXHX",
"HXHXHXHXwXSXzXb.f s % HXHXHXHXHXHXHXHXHXHXHXHXHXHXs a.r.d 8XzX2Xs.6X8Xl.6XzXDXx.d j s s a # # k.cXNXNXCXCXcX:XcXsX:X&X:XAX*XHXHX",
"HXHXHX5XSXzX5Xr.r.k y HXHXHXHXHXHXHXHXHXHXHXHXHX% p.a.s d 6X5X$   W.b.# % OXFXc.d j j s s % # a *XNXfXVXCXVXaXdXsX:X&X:XCXAX/.HX",
"HXHXHXSXSX0Xy.k t.k HXHXHXHXHXHXHXHXHXHXHXHXHXHXr.l.u.a a 2Xl.* g 8X5Xy # z.pXy.d j j s s a %   X.xXfXfXCXCXsXaX:X&X#XfXCXVXeXHX",
"HXHX5XSXSXl.s r.t.k HXHXHXHXHXHXHXHXHXHXHXHXHXs a.a.j a a b.6X2XqXDXzX8Xp.6X6Xj s j j j s s a #   g.cXaXfXBXsX:X:X&X>XcXvXCXgXHX",
"HXHXwXSX0Xf d j k k HXHXHXHXHXHXHXHXHXHXHXHXHXy.a.y.s s s r.OXDXpXzXzXzXxXpXl.d j j j j j s s %   # @XfXaXaXaX>X&X#X:XdXvXAXdXHX",
"HXl.SXSXb.% s f k f HXHXHXHXHXHXHXHXHXHXHXHXj a.a.k d f X.a.r.4XOXzX3XeX4Xy.j d j j j j j s s s % # % @XfX:X>X>X#X&XaXdXdXcXuXHX",
"HXb.SXzXs.5 f j t.d HXHXHXHXHXHXHXHXHXHXHXHXy.l.p.s s l 2XzXOXp.1.y.1.p.p.W.2Xk j j j k j j s s s $   y #XaX>X&X#X>XaXaXcXZX+XHX",
"HX5XSXwXd.j f ~ t.a HXHXHXHXHXHXHXHXHXHXHXj a.l.t.s s r.OXc.b.3X3Xx.z.z.OXeXeXp.j j j j j j s s s s     r #X&X#X&X:XsXfXNXdXi.HX",
"HX0XSX0Xt.r.r.p.t.d HXHXHXHXHXHXHXHXHXHXHXt.a.a.j s s r.0XeX2Xz.c.c.3X2Xc.l.c.y.j j j j j j f s s s %     d h.#X&X:X:X:X&Xg.HXHX",
"HX4XSX0Xr.r.r.p.y.j HXHXHXHXHXHXHXHXHXHXHXy.l.p.s s a f c.a.k j j j j y.c.0XzXl.j k j j j j f s s s s %     $ f 3.3.1.2.h o   HX",
"HXp.c.c.r.k t.y.d.l a HXHXHXHXHXHXHXHXHXHXp.a.p.j s s s d s s f s f f s s t.z.X.j j j j j j s s s s s s %         .           HX",
"HXHXu.2Xu.k t.t.y.k d HXHXHXHXHXHXHXHXHXs p.l.a.p.y.r.j f f s s s s s a s a a s s s s s f s s s s s s s s %     # # #   # #   HX",
"HXa.0XwXy.j r.t.t.r.s HXHXHXHXHXHXHXHXHXHXp.a.l.a.a.a.d.~ l j ^ ~ ^ h g d d d 5 % a a a s s d s a s s d s d a # # # # # # #   HX",
"HXb.GXSXa.a j r.t.t.l HXHXHXHXHXHXHXHXHXHXt.l.a.a.y.r.l V D D F Q.-X-X$X$X X4.u : 5 5 - $ % y a a s s s d s s a % # $ # # # HXHX",
"HXHXwXSX2X% s j l k k y HXHXHXHXHXHXHXHXHXs d.l.d.s s s g 5.+.D F R.jXiX.X4.G D F K D D 4.F 4.! y 5 a a s s d a s % $ # # # HXHX",
"HXHXb.SXwXt.% s s f j a HXHXHXHXHXHXHXHXHXHXj p.p.s s d $   i HX4.;XbXiXG.K #.#.%.HX@.7.-XyX$XG.B D 6.2.s a s s s s % $ #   HXHX",
"HXHXHX4XSX2Xs a s s s s HXHXHXHXHXHXHXHXHXHXHXl a.k d s # . . HXoXkXnXbXyX4.; * HXHXHXf.iXbXkXY.#.M.-X,X$X^ % a s a # # # HXHXHX",
"HXHXHXHX0XzXx.j j j j s % HXHXHXHXHXHXHXHXHXHXHXj y.s s f.E.E.R.yXbXnXkXjX.Xh 5 HXHXHXU.hXbXbXQ.#.N.$XhXjXg.  # % % # # # HXHXHX",
"HXHXHXHXHX0XwXa.j r.r.j d HXHXHXHXHXHXHXHXHXHXHXHXf j s $X;X.X5.J.iXkXhX$X.X;XXXY.U.T.;XbXmXbXG.#.M..X,XjX2.# # # # # # HXHXHXHX",
"HXHXHXHXHXHX5X0Xp.j r.r.l $ & HXHXHXHXHXHXHXHXHXHXHXV ! +.J m J m 5.G.D.K B G.XX;X,X,X,X;XbXyXI &.%.XX1X$X,.# # # # # # HXHXHXHX",
"HXHXHXHXHXHXHXOX4Xp.j f f ! 6 - HXHXHXHXHXHXHXHXHXu B.V.M.L #.M.G.U.5.L K m H B J I +.K F XX.XM #.%..X=X,.C.5 # # $ # HXHXHXHXHX",
"HXHXHXHXHXHXHXHXl.b.^ ^ G.G.V 5 * - HXHXHXHXHXHXHX+.B.I.I.B.#.L T.+XW.h.5.G.G.L B J m M J $.+.B #.%.J.<X'.'.5 # #   HXHXHXHXHXHX",
"HXHXHXHXHXHXHXHXHXf.U.G._ Z Z 6 7 C 7 HXHXHXHXHXHXHXV.B.I.B.m M M M ! i.k.uX7X%.#.&.&.#.I %.&.J #.%.M.-X=XN.#   HXHXHXHXHXHXHXHX",
"HXHXHXHXHXHXHXHXHXh.) Z ! Z u - S 7.V 7 HXHXHXHXHXHXN.P.L m m M m H M M ! oX@X&.%.%.%.%.&.#.J B #.%.%.%.^ HXHXHXHXHXHXHXHXHXHXHX",
"HXHXHXHXHXHXHXHXHX( 4.Z Z W j.+Xh.=XJ.C - HXHXHXHXHXHXP.#.m #.H J %.L H J M F m J L L H H m K D L %.%.P HXHXHXHXHXHXHXHXHXHXHXHX",
"HXHXHXHXHXHXHXHXHXHX! C = j MXmX*X X=Xo.i HXHXHXHXHXHXi K J L J L D.L L L L L M m H M H L B #.: D $.P i HXHXHXHXHXHXHXHXHXHXHXHX",
"HXHXHXHXHXHXHXHXHXHXHX@ Q Q oXiXXX6. X7.C : HXHXHXHXHXHXP B.L I #.B.L M.L $.#.M L #.m #.$.J %.q + - o HXHXHXHXHXHXHXHXHXHXHXHXHX",
"HXHXHXHXHXHXHXHXHXHXHXx.dX;X! 2.Q T.;X2.V 7 HXHXHXHXHXp w K.M.#.&.V.#.K.#.%.L m #.L m %.&.#.+.: O 8 8 O HXHXHXHXHXHXHXHXHXHXHXHX",
"HXHXHXHXHXHXHXHXHXHXHX3XnXjXR.i : 6.#X! C 6 < HXHXHXw.<.3.B L.M.&.P.N.K.#.%.J L &.B L %.%.@.q o 8 ' ' 9 O 9 HXHXHXHXHXHXHXHXHXHX",
"HXHXHXHXHXHXHXHXHXHXHXi.dXbXiXR.i ; 7 C u 4 A N X.w.8.X.>.C ) K.M.L.K.K.%.M.L %.#.#.%.$.D @ + + ..' ' ` | 8...HXHXHXHXHXHXHXHXHX",
"HXHXHXHXHXHXHXHXHXHXHXHXqXmXjX;X! 7 - w Z z P O.0.0.r 9.>.F 4 &.B.F.K.B.F.B.M.M.%.#.D w t q 8 O X.} ' 9 ..q.^. .HXHXHXHXHXHXHXHX",
"HXHXHXHXHXHXHXHXHXHXHXHXs.uXbXhXR.u ; u E Y A.[ ]  ...w.*.A.C.S ^ uXtXJ.B.%.F C 6 < 4 *.O.' q o p 0.' ` ..w./.^...HXHXHXHXHXHXHX",
"HXHXHXHXHXHXHXHXHXHXHXHXHXa.MXhXT.C 6 - < A '.t ' ' r 0.[ >.O.q C <X1X[.6 7 O.@.b 3 N.S.{ ' ` 8 + 8.8.' ] 9  .<.8.+ HXHXHXHXHXHX",
"HXHXHXHXHXHXHXHXHXHXHXHXHXHXk.6.u C 6 / 6 N :.e ' ' e w. .{ ' @ G -.=.F < 6 9.S.'.A.S.} } ' { ' 8 8 q. . .e ` 9 ..+ o HXHXHXHXHX",
"HXHXHXHXHXHXHXHXHXHXHXHXHXHXZ.C.W ! 4.G.G : r ` ' ' e <.;.{ ..- K #.H L u q /.} O.>.[ ' } { ' } r O p q.;.' ' ` ` 9 O HXHXHXHXHX",
"HXHXHXHXHXHXHXHXHXHXHXHXHX`.{.D.f.J.( ! 6 : 9 ' ' ` 9 p  ...] < 6 L #.F 6 i /.;.' } { ' } { ' ` 8 O 0 9...' ' ` ' e + o HXHXHXHX",
"HXHXHXHXHXHXHXHXHXHXHXHXHXL.m.R / 7.F C o.t ` e 9 8 O 4 9.r 0 6 6 6 7 < 1 i /.;.' } { ' { } ' 8 O - F *.O.t e ` ' ` + o HXHXHXHX",
"HXHXHXHXHXHXHXHXHXHXHXHXHX3 R n.R T b S.S.8 8 8 8 O X b  .7 < o.S.A.S.Z.=.Q /.0.' } { ' } } ` + + / R _ %.C.:.[ e ` 8 o HXHXHXHX",
"HXHXHXHXHXHXHXHXHXHXHXHXHXHXx n.n.R L.].w o o o o HX= W  .x A @.n &.[.S.C.:.~.^.' ' { ' ' } 8 o y A.5.v v n %.).>.r 8 o HXHXHXHX",
"HXHXHXHXHXHXHXHXHXHXHXHXHXHXHXY n.m.{.:.HXHXHXHXHXHXh <.p - D +.z P ].b z C.o.3.p  .q t q 8.q l 6X X_.%.v Y v n C.S.t o HXHXHXHX",
"HXHXHXHXHXHXHXHXHXHXHXHXHXHXHXHX_ }.).HXHXHXHXHXHXHXe./.} ' O.=.A =.].x z Z.Z U A  .4 c z O.p uXkXhXh.`.%.U Y Y v =.`.O.HXHXHXHX",
"HXHXHXHXHXHXHXHXHXHXHXHXHXHXHXHXHXA.HXHXHXHXHXHXHXW e.8.{ ' q *.).).`.:.@.:.A U W <.6 c z 3.3.&XjXjX,Xe.`.P U Y v c #.S.N HXHXHX",
"HXHXHXHXHXHXHXHXHXHXHXHXHXHXHXHXHXHXHXHXHXHXHXHXHXG._ p ' e 3 V *.@.=.:.*.3 h e.9. .q t q | 1.uXkXbXbX;XC.).n v n *.A C -.N HXHX",
"HXHXHXHXHXHXHXHXHXHXHXHXHXHXHXHXHXHXHXHXHXHXHXHXHX*.A.D.n x c x 6 6 6 V C x ! (./.| ' } { 9 @XbXnXnXnXbXoXS.N.z @.|.A.1 6 o.q HX",
"HXHXHXHXHXHXHXHXHXHXHXHXHXHXHXHXHXHXHXHXHXHXHXHXHXHXHX*.A.D._ v z > < 2 2 z T q./.8.' { ] r g.kXnXnXnXmX,X7._.V b Z.F 1 1 - HXHX",
"HXHXHXHXHXHXHXHXHXHXHXHXHXHXHXHXHXHXHXHXHXHXHXHXHXHXHX1 b D *.&.b > < z U U U U x b 3 b b x A T.iXmXnXMX-X2.N -.2 1 1 , HXHXHXHX",
"HXHXHXHXHXHXHXHXHXHXHXHXHXHXHXHXHXHXHXHXHXHXHXHXHXHXHXx x , , 6 < 1 u @.#.I ) ) ) M.H.D.D.N.*.w ^ %XiX;XU.HXHXo.C , HXHXHXHXHXHX",
"HXHXHXHXHXHXHXHXHXHXHXHXHXHXHXHXHXHXHXHXHXHXHXHXHXHXHX, 1 , 1 4 , 4 , 5 ; N D F @.o.F D u 6 > > > & i.2.HXHXHXw w HXHXHXHXHXHXHX",
"HXHXHXHXHXHXHXHXHXHXHXHXHXHXHXHXHXHXHXHXHXHXHXHXHXHXHXHX* = , > , 4 > > X HX> z 2 1 2 2 2 2 , > > X HXHXHXHXHXHXHXHXHXHXHXHXHXHX",
"HXHXHXHXHXHXHXHXHXHXHXHXHXHXHXHXHXHXHXHXHXHXHXHXHXHXHXHXHXw o.N ; * X HXHXHXHXz 2 4 3 3 3 3 , > X HXHXHXHXHXHXHXHXHXHXHXHXHXHXHX",
"HXHXHXHXHXHXHXHXHXHXHXHXHXHXHXHXHXHXHXHXHXHXHXHXHXHXHXHXHXV F C & HXHXHXHXHXHX< 3 < > , , 4 > > > HXHXHXHXHXHXHXHXHXHXHXHXHXHXHX",
"HXHXHXHXHXHXHXHXHXHXHXHXHXHXHXHXHXHXHXHXHXHXHXHXHXHXHXHXHX! ( 6 @ HXHXHXHXHXi 4.7.! u C u 6 < * * HXHXHXHXHXHXHXHXHXHXHXHXHXHXHX",
"HXHXHXHXHXHXHXHXHXHXHXHXHXHXHXHXHXHXHXHXHXHXHXHXHXHXHXHXHX,.( ; HXHXHXHXHXHX4.G.G.5.) F o.o.w ; HXHXHXHXHXHXHXHXHXHXHXHXHXHXHXHX",
"HXHXHXHXHXHXHXHXHXHXHXHXHXHXHXHXHXHXHXHXHXHXHXHXHXHXHXHXHXC C @ HXHXHXHXHXi ( ( 5.) ( ( Z C 7 & HXHXHXHXHXHXHXHXHXHXHXHXHXHXHXHX",
"HXHXHXHXHXHXHXHXHXHXHXHXHXHXHXHXHXHXHXHXHXHXHXHXHXHXHXHXHXHXHXHXHXHXHXHXHX# 5 i C g u i 7 5 $ & HXHXHXHXHXHXHXHXHXHXHXHXHXHXHXHX",
"HXHXHXHXHXHXHXHXHXHXHXHXHXHXHXHXHXHXHXHXHXHXHXHXHXHXHXHXHXHXHXHXHXHXHXHXHXHX# # # # # # # # HXHXHXHXHXHXHXHXHXHXHXHXHXHXHXHXHXHX"
};
