/* XPM */
static char *result[] = {
/* columns rows colors chars-per-pixel */
"64 64 249 2 ",
"   c #050505",
".  c #050C00",
"X  c #0C0B0B",
"o  c #0A0605",
"O  c #120404",
"+  c #1B0206",
"@  c #1A0C04",
"#  c #170709",
"$  c #071101",
"%  c #0A1401",
"&  c #0D1B01",
"*  c #171507",
"=  c #141413",
"-  c #1C1C1C",
";  c #191816",
":  c #0E1010",
">  c #23020B",
",  c #2A020D",
"<  c #260907",
"1  c #36060D",
"2  c #241305",
"3  c #2B1306",
"4  c #291907",
"5  c #361B0B",
"6  c #37190A",
"7  c #2C0110",
"8  c #340212",
"9  c #3B0116",
"0  c #390B11",
"q  c #231D19",
"w  c #371B12",
"e  c #132202",
"r  c #182A02",
"t  c #1D3701",
"y  c #0F2301",
"u  c #282606",
"i  c #372408",
"p  c #223C03",
"a  c #283907",
"s  c #373504",
"d  c #28241C",
"f  c #3A2416",
"g  c #2F3617",
"h  c #242424",
"j  c #2B2B2B",
"k  c #2A2725",
"l  c #322D2A",
"z  c #37312A",
"x  c #333332",
"c  c #3C3C3B",
"v  c #3A3735",
"b  c #2E3030",
"n  c #3E1C20",
"m  c #4C0215",
"M  c #4D0019",
"N  c #480616",
"B  c #540019",
"V  c #5A001A",
"C  c #5A0A19",
"Z  c #461614",
"A  c #561717",
"S  c #421E0D",
"D  c #650F1B",
"F  c #47250A",
"G  c #5B2B02",
"H  c #542904",
"J  c #463807",
"K  c #59360A",
"L  c #492614",
"P  c #552B15",
"I  c #562513",
"U  c #48351B",
"Y  c #573515",
"T  c #643405",
"R  c #6C3C0B",
"E  c #65360A",
"W  c #713F0C",
"Q  c #6A3E14",
"!  c #673817",
"~  c #763919",
"^  c #672711",
"/  c #76012C",
"(  c #740C2B",
")  c #493727",
"_  c #5B3C23",
"`  c #433E3A",
"'  c #4F2E22",
"]  c #6F3B28",
"[  c #530120",
"{  c #244500",
"}  c #294603",
"|  c #264900",
" . c #2B4C02",
".. c #2C450D",
"X. c #364A06",
"o. c #2E5101",
"O. c #325402",
"+. c #365805",
"@. c #354918",
"#. c #3B5914",
"$. c #3F5422",
"%. c #484607",
"&. c #5A4509",
"*. c #515011",
"=. c #66480A",
"-. c #74410E",
";. c #7D450E",
":. c #67530B",
">. c #77580B",
",. c #6B4312",
"<. c #754412",
"1. c #794613",
"2. c #7D4B16",
"3. c #784C18",
"4. c #775912",
"5. c #46671A",
"6. c #7B670A",
"7. c #6B6407",
"8. c #465C23",
"9. c #464639",
"0. c #574A33",
"q. c #56442B",
"w. c #6A4726",
"e. c #764826",
"r. c #6C5536",
"t. c #71512F",
"y. c #546A2A",
"u. c #54732A",
"i. c #526E2B",
"p. c #6B7236",
"a. c #434242",
"s. c #4C4C4B",
"d. c #4B4A47",
"f. c #58554A",
"g. c #545453",
"h. c #5D5D5C",
"j. c #5A5956",
"k. c #504F4F",
"l. c #685D52",
"z. c #6A624B",
"x. c #64625D",
"c. c #7A6D4F",
"v. c #646261",
"b. c #6D6B66",
"n. c #747169",
"m. c #797875",
"M. c #716D68",
"N. c #830033",
"B. c #963A2A",
"V. c #834B17",
"C. c #865518",
"Z. c #985718",
"A. c #A35B17",
"S. c #84690C",
"D. c #8B7509",
"F. c #937C09",
"G. c #987613",
"H. c #866A13",
"J. c #A9621D",
"K. c #AF6B1E",
"L. c #875A35",
"P. c #8B5829",
"I. c #8B6636",
"U. c #A96423",
"Y. c #CF7722",
"T. c #C36D1F",
"R. c #886645",
"E. c #94734A",
"W. c #8B7853",
"Q. c #92774D",
"!. c #847E70",
"~. c #A07F54",
"^. c #688737",
"/. c #6F913E",
"(. c #5F8330",
"). c #749541",
"_. c #7CA145",
"`. c #9A8508",
"'. c #A38908",
"]. c #A89104",
"[. c #B1890A",
"{. c #BC9B12",
"}. c #DFB112",
"|. c #D69C1F",
" X c #F0CB00",
".X c #988851",
"XX c #AA8556",
"oX c #B58F59",
"OX c #898468",
"+X c #86837D",
"@X c #9C9576",
"#X c #9A8C67",
"$X c #A6966A",
"%X c #BA9767",
"&X c #AF9066",
"*X c #B9AA78",
"=X c #B1A573",
"-X c #CEB454",
";X c #C39E6B",
":X c #CBA777",
">X c #D2AC79",
",X c #C6B97E",
"<X c #C1B57C",
"1X c #CFAB6C",
"2X c #E2B750",
"3X c #F6D172",
"4X c #8B8984",
"5X c #918D87",
"6X c #9A968C",
"7X c #999895",
"8X c #A39E96",
"9X c #ABA484",
"0X c #A8A49D",
"qX c #B5A886",
"wX c #ABA9A5",
"eX c #BAB5AA",
"rX c #B8B8B5",
"tX c #B2AEA4",
"yX c #CABC82",
"uX c #C5B985",
"iX c #DCB987",
"pX c #C6B38F",
"aX c #E3BF8A",
"sX c #C3BEB5",
"dX c #CEC187",
"fX c #D2C58B",
"gX c #D7CA96",
"hX c #DED19A",
"jX c #CFC69A",
"kX c #E7C28D",
"lX c #ECCA97",
"zX c #F1CE99",
"xX c #ECD39E",
"cX c #C8C4BC",
"vX c #DCCFA4",
"bX c #E8DAA6",
"nX c #F3D4A8",
"mX c #F5D9B4",
"MX c #FADBB1",
"NX c #E4D1B3",
"BX c #EDE1AC",
"VX c #EEE4B1",
"CX c #F1E6B2",
"ZX c #F4E9B7",
"AX c #CBCAC6",
"SX c #D3CDC2",
"DX c #D6D1C8",
"FX c #D7D6D4",
"GX c None",
/* pixels */
"GXGXGXGXGXGXGXGXGXGXGXGXGXGXGXGXGXGXGXGXGXGXGXGXGXGXGXGXGXGXGXGXGXGXGXGXGXGXGXGXGXGXGXGXGXGXGXGXGXGXGXGXGXGXGXGXGXGXGXGXGXGXGXGX",
"GXGXGXGXGXGXGXGXGXGXGXGXGXGXGXGXGXGXGXGXGXGXGXGX= = = ; - = ; h c c GXGXGXGXGXGXGXGXGXGXGXGXGXGXGXGXGXGXGXGXGXGXGXGXGXGXGXGXGXGX",
"GXGXGXGXGXGXGXGXGXz.GXGXGXGXGXGXGXGXGXGXX = = = = = = = = = = = k x x GXGXGXGXGXGXGXGXGXGXGXGXGXGXGXGXGXGXGXGXGXGXGXGXGXGXGXGXGX",
"GXGXGXGXGXGXGX@XjXbXjX@XGXGXGXGXGXGXGXGXX = = - - - h h h h h h j a.c j GXGXGXGXGXGXGXGXGXGXGXGXGXGXGXGXGXb.GXGXGXGXGXGXGXGXGXGX",
"GXGXGXGXGXGX=XbXgXhXVXZX@XGXGXGXGXGXGXo : - h h k j j j j j j k h b k.x k GXGXGXGXGXGXGXGXGXGXGXGXGXGXGXGX7XrX+XGXGXGXGXGXGXGXGX",
"GXGXGXGXGXOXgXdXgXVXZXZXvX9.GXGXGXGXGXX : h h j b b j k j x x j h - c g.j - GXGXGXGXGXGXGXGXGXGXGXGXGXGXGXm.cXAXwXk.GXGXGXGXGXGX",
"GXGXGXGXGX*XdX,XbXZXBXVXVXqXqX).GXGXX : - h j b b h c m.8XeXsXwX!.c - s.s.- GXGXGXGXGXGXGXGXGXGXGXGXGXGXGXj !.rXAXrXv.GXGXGXGXGX",
"GXGXGXOX#XuXuXdXBXbXgXVXZXZXZXNXc.: X : h h b j j n.rXDXDXDXNXDXFXsXv.k j.c X GXGXGXGXGXGXGXGXGXGXGXGXGXGX: h m.rXAXrXh.GXGXGXGX",
"GXGX=XCX,X*X,XfXbXyXbXZXZXBXBXbXW.: X - h j b - n.cXSX8Xx.wX8Xj.4XcXtXk c h.h GXGXGXGXGXGXGXGXGXGXGXGXGXGX= k j m.cXAXrXGXGXGXGX",
"GX).CXCXdX=X,XdXgXdXCXZXCXhXCX=X- X = h h b b h m.DX+X; o m.!.o = 5X8Xq h h.g.= GXGXGXGXGXGXGXGXGXGXGXGXGX- c c c 5XcXFX5XGXGXGX",
"GXtXCXCXhX=X-X,XdXfXZXCXhXhXhXv   = - h k b x - d.cXb.o q 5X8Xk X x.4Xq h d.h.c GXGXGXGXGXGXGXGXGXGXGXGXGXGXv a.c s.wXAXAXGXGXGX",
"GXjXCXBXbX*X=X,X,XgXVXhXfXbXz.. X - k k b b x k l 8X8Xg.0XSXSXrX4X7Xm.h - b h.h.j GXGXGXGXGXGXGXGXGXGXGXGXGXx a.c h v.AXFX5XGXGX",
"GXvXCXBXhX,X=X*X,XdXdXdXbXOX.   - h h j x x x j h x.sXcXSXSXSXsXSX+Xc h k h s.h.s.GXGXGXGXGXGXGXGXGXGXGXGXGXv c j h j wXAXrXGXGX",
"GXpXbXgXhXfX=X=X,X*XdXhX@X= o = h h k b b x x l h b a.8XtX6XsX!.7X9.v.c j h c h.h.c GXGXGXGXGXGXGXGXGXGXGXGXj v j j = m.AXAXv.GX",
"GX@XZXbX,X,X<X$X*X,XfX$X;   : h h h j x x x x x v 4X!.g.g.` s.c g.!.cX4Xx h j g.h.s.GXGXGXGXGXGXGXGXGXGXGXGXq a.l j ; h.rXFXm.GX",
"GXf.jXBXbXfX,X*X$X*X$Xd   X d h h j x x x x x x j.tX0X4Xb.b.M.6X6X!.m.!.c h h a.h.h.j GXGXGXGXGXGXGXGXGXGXGXh a.c l b k.rXAX7XGX",
"GXGXz.*X,X,X,X*X$Xc.d     - h k h j x x x x b x d.M.v.M.5X7Xm.b.M.4XeXwXc h h b h.h.c GXGXGXGXGXGXGXGXGXGXGXh a.g.c x a.wXFX7XGX",
"GX. . k 0.0.q.9.k : .   ; h h h h b b x x x x b h.AXtXM.d.x b b b v h.M.b h h h g.v.s.GXGXGXGXGXGXGXGXGXGXGXl d.g.` c a.wXAX7XGX",
"GX          .         = h h h h h j x x x b j j c v.$.k j j h j j h h h h h h b g.h.g.GXGXGXGXGXGXGXGXGXGX- x k.s.c v c m.b.g.GX",
"GXo X X X . X o   o = h h h h h h h h k k k h h h h h h h h h h k j j j b c s.g.h.v.g.k GXGXGXGXGXGXGXGXGXh v s.a.a.v a.4Xs.GXGX",
"GX  X : X X X X X - h h h h h h h h h h h - - - ; d k d f z z ` ` z v 9.k.j.h.h.h.h.k.GXGXGXGXGXGXGXGXGXGXh c a.a.a.b s.rXwXh.GX",
"GXGXX X X X X = h h h h h h h h h - = * @ 2 2 3 i w.~.%X%X;X;XE.P F H F b a.s.h.v.h.a.GXGXGXGXGXGXGXGXGXGXx a.` c x - h.cXFXm.GX",
"GXGXX X X = - h h h h h h - ; 4 U w.Y w.H K K E F F w.oXkXlX~.Y H -.w.k h h k k.v.g.h GXGXGXGXGXGXGXGXGX- c c x j - = 4XAXrXGXGX",
"GXGX  X X = h h h h - k 0.r.H T L.;X>X:Xt.! GX3.<.,.E t.kXnX:X] GX5 . = h h j g.g.j GXGXGXGXGXGXGXGXGXGXq j j j j - c rXFX+XGXGX",
"GXGXGXX : X h h - = ) %XiXoXV.-.E.zXnXaXr.GXGXGXO 2 w.iXzXmXnX~.GX    X h h v j.x GXGXGXGXGXGXGXGXGXGXGXh j j j - h 4XFX7XGXGXGX",
"GXGXGXX X X = = X X z.lXkX%XC.<.E.nXMXkXR.GXGXGX* ) XXzXlXmXnXiX.XR.W.z.h h s.x GXGXGXGXGXGXGXGXGXGXGX- k j b b j b.AXwXGXGXGXGX",
"GXGXGXGXX X X : : X 0.zX>XXXC.-.L.nXmXnX>XQ.R.E.&X1XXX;XaXnXaXR.e.XX:X%Xj j j GXGXGXGXGXGXGXGXGXGXGXGXh x c a.x h.rX0XGXGXGXGXGX",
"GXGXGXGXo : X X X X &.%X3XoX2.<.Q iXnX:X>X>X>X:XoXL.G K P.I.3.G T G T Q Y L GXGXGXGXGXGXGXGXGXGXGX# # x c c x g.wX5XGXGXGXGXGXGX",
"GXGXGXGXGXo X X X = H.Y -XXX1.-.G XXoXK E ! Q E G T G R R t.L.L.2.-.R V.A.Z.6 GXGXGXGXGXGXGXGXGX@ 6 U l b x g.7X+XGXGXGXGXGXGXGX",
"GXGXGXGXGXGX  X X 4 [.[.2XI.1.-.G ~ <.T H G E G R L.P.e.z.!.@XW.Q ;.Z.Y.Y.Z.,.GXGXGXGXGXGXGX@ o 3 L L.L.' ) m.v.GXGXGXGXGXGXGXGX",
"GXGXGXGXGXGXGXGX  X 4.1X;XC.2.-.E <.2.-.R 1.<.-.3.qXaXz.r.Y G H H G Z.T.Z.A.GXGXGXGXGXGXGX4 F 3 3 P P ] R.R.l.GXGXGXGXGXGXGXGXGX",
"GXGXGXGXGXGXGXGXGXGXGX) V.V.2.R G R -.1.V.2.2.2.1.!.@XP H H E G H G G R A.Z.GXGXGXGXGXGX3 P t.P @ w P P P ] t.GXGXGXGXGXGXGXGXGX",
"GXGXGXGXGXGXGXGXGXGXGXGXR V.2.E H E G T T R R T G Y G T T R V.T T R G W U.GXGXGXGXGXGX@ F I.-Xp.#Xc.f P P ] Y GXGXGXGXGXGXGXGXGX",
"GXGXGXGXGXGXGXGXGXGXGXGX5 ! 1.J 2 <.G R T G G G H R E E R R C.R T R E E 5 GXGXGXGXGXGX5 q.-X.X%XMXNXl < L Y GXGXGXGXGXGXGXGXGXGX",
"GXGXGXGXGXGXGXGXGXGXGXGXGX  * % 4 3.T 1.R G -.R H W ;.R V.R Z.W W T A.R GXGXGXGXGXGX2 L t..Xt.%XkX#X) f @ GXGXGXGXGXGXGXGXGXGXGX",
"GXGXGXGXGXGXGXGXGXGXGXGX. y y $ * ,.-.<.1.G R 1.G R V.W J.W J.W ;.V.J.4 g GXGXGXGXGX< L 0.<XW.g q.) :XvXn.GXGXGXGXGXGXGXGXGXGXGX",
"GXGXGXGXGXGXGXGXGXGXr % r | | y . 4 ,.1.2.R G <.R E V.-.J.C.K.;.V.K.K U $.i.GXGXGX1 < L _ &X0.2 f ~.lXmX6XGXGXGXGXGXGXGXGXGXGXGX",
"GXGXGXGXGXGXGXGXGX .5.@.t | | ..% % * J <.2.-.-.V.R V.;.J.J.K.V.K.<.Z 7.$.8.i.@.s I 8 i L 4 3 w ~.aXNXaXf.GXGXGXGXGXGXGXGXGXGXGX",
"GXGXGXGXGXGXGXGX .(.p...p | o.$.% & r s i P Q 1.2.2.Z.Z.Z.J.P.Z.1.7 ! 7.i.t i.u.%.E m P i # 3 _ :XzXmXsXGXGXGXGXGXGXGXGXGXGXGXGX",
"GXGXGXGXGXGXGX..(.).u.| t | i.a % r { %.4.1 , w F K 2.Z.I.uXuX) J C.'.*.i...#.{ J G.V D w 3 5 Q.aXnXpXj.GXGXGXGXGXGXGXGXGXGXGXGX",
"GXGXGXGXGXGX% 8.#.#.t { { 5.8.: & } |  .D.H.9 Z K &.4 < {.3X2X5 2 *.7.O.u.a } { a '.P > + 5 f Q.aXNXj.GXGXGXGXGXGXGXGXGXGXGXGXGX",
"GXGXGXGXGX. $ } r { a ..5.u.& y }  .| +.X.F.G.'.D.y.i < T V.=.F * |  .+.i.t | } p 6.s 5 P 3 S L r.W.GXGXGXGXGXGXGXGXGXGXGXGXGXGX",
"GXGXGXGXGX$ r { { }  .5.p.t X t O.|  .+.| | 7.:.#./.u 6 =.T W K @ } o.5.8.{ | { { u < F L.w.' L D.D.GXGXGXGXGXGXGXGXGXGXGXGXGXGX",
"GXGXGXGX. & t { { } { } i.y $ y } { O.+. .o.o.| #.).f < K 1.Q 1 , p } 8.r r { | | r * 6 P ] R.z.V.}.'.GXGXGXGXGXGXGXGXGXGXGXGXGX",
"GXGXGXGX. & { | { t a %.:.Y @ % e } +.O.| o.+.| 5./.L 7 , 3 3 w 1 r p 8.7 o e t { p s &.F P t.A / B.K.GXGXGXGXGXGXGXGXGXGXGXGXGX",
"GXGXGXGX$ e { t X.6.D.1.^ N.A & & { +.O.{ O.O.{ u.).U >.S.F.F.F.:., 5 #.Z O $ % & y & D.D.Z C ( N./ 9 GXGXGXGXGXGXGXGXGXGXGXGXGX",
"GXGXGXGX. & a :.`.1.C V B V.G.; . e  .| | o.| { (./.S.S.D.}.:.m E A 9 X.L # GX.   . . i ].K.N.N./ N GXGXGXGXGXGXGXGXGXGXGXGXGXGX",
"GXGXGXGX. s F.D.D B V B e.`..X8X) r 8.u a u @.g ) *.S.m Z `.Q m ,.J < a 8.z GXGXGXGXGXGX6.}.B.N.[ GXGXGXGXGXGXGXGXGXGXGXGXGXGXGX",
"GXGXGXGX%.'.C.B V V [ 1.'.R.lXzXpXg *.m B 1 #.L B ^ D.m N ].C.A 4.%.| X.).^.GXGXGXGXGXGXGX`.|.( GXGXGXGXGXGXGXGXGXGXGXGXGXGXGXGX",
"GXGXGXJ F.W m V V V ! '.p.>XzXlX*X@.8.M B 1 @.' M Z S.=.6.].`.`.:.u  . .5.p.n GXGXGXGXGXGXGX`.GXGXGXGXGXGXGXGXGXGXGXGXGXGXGXGXGX",
"GXGXJ :.S F >.N V C '.H.*XnXnXzXpX0...u s u #.8.p.z 1 :.7.4.=.:.P 1 p } 4 ] L.GXGXGXGXGXGXGXGXGXGXGXGXGXGXGXGXGXGXGXGXGXGXGXGXGX",
"GX4 &.0 8 G. X=.m H.F..XMXmXmXmXnXOXt  .O.| ../._.' N Z L 5 0 0 N M N A V.G.:.GXGXGXGXGXGXGXGXGXGXGXGXGXGXGXGXGXGXGXGXGXGXGXGXGX",
"GXGX@ 7 8 Y D.Z Z `.t.iXmXmXmXmXnXz.r  .O.} 8.).p.Z M 9 9 > < M B ^ Z.H.:.GXGXGXGXGXGXGXGXGXGXGXGXGXGXGXGXGXGXGXGXGXGXGXGXGXGXGX",
"GXGXGXGX> , 8 8 =.J q.;XnXmXmXaXW.A m N 0 0 Z [ B B V B M > + Z 1.:.K N 8 GXGXGXGXGXGXGXGXGXGXGXGXGXGXGXGXGXGXGXGXGXGXGXGXGXGXGX",
"GXGXGXGXGXGX, F &.GXGXR.pXaX&X) 4 :.C.C.C.V.V.~ ~ ~ ~ ~ ,.w 7 > 1 , 7 N 9 GXGXGXGXGXGXGXGXGXGXGXGXGXGXGXGXGXGXGXGXGXGXGXGXGXGXGX",
"GXGXGXGXGXGXGXu u GXGXGXq.0.# # + + 6 w P E &.=.K J J 3 < , 8 , 7 , , 7 , GXGXGXGXGXGXGXGXGXGXGXGXGXGXGXGXGXGXGXGXGXGXGXGXGXGXGX",
"GXGXGXGXGXGXGXGXGXGXGXGXGXGXo + > , 9 8 9 9 7 8 m > GXo + > 7 , > > # # GXGXGXGXGXGXGXGXGXGXGXGXGXGXGXGXGXGXGXGXGXGXGXGXGXGXGXGX",
"GXGXGXGXGXGXGXGXGXGXGXGXGXGXGX+ + , 8 8 9 8 8 9 m GXGXGXGXo O 3 s &.i GXGXGXGXGXGXGXGXGXGXGXGXGXGXGXGXGXGXGXGXGXGXGXGXGXGXGXGXGX",
"GXGXGXGXGXGXGXGXGXGXGXGXGXGXGX+ > + 8 , 7 > > 0 > GXGXGXGXGXGX* L P L GXGXGXGXGXGXGXGXGXGXGXGXGXGXGXGXGXGXGXGXGXGXGXGXGXGXGXGXGX",
"GXGXGXGXGXGXGXGXGXGXGXGXGXGXGXo O > 6 w i f P t.w.f GXGXGXGXGXO 6 ! _ GXGXGXGXGXGXGXGXGXGXGXGXGXGXGXGXGXGXGXGXGXGXGXGXGXGXGXGXGX",
"GXGXGXGXGXGXGXGXGXGXGXGXGXGXGXGX2 i K &.Y ~ e.P.L._ GXGXGXGXGXGX3 ! _ GXGXGXGXGXGXGXGXGXGXGXGXGXGXGXGXGXGXGXGXGXGXGXGXGXGXGXGXGX",
"GXGXGXGXGXGXGXGXGXGXGXGXGXGXGXGX@ 3 F P ! ] ~ ] <.! 4 GXGXGXGXGX@ f L GXGXGXGXGXGXGXGXGXGXGXGXGXGXGXGXGXGXGXGXGXGXGXGXGXGXGXGXGX",
"GXGXGXGXGXGXGXGXGXGXGXGXGXGXGXGX: = ; 4 w f w L w q : GXGXGXGXGXGXGXGXGXGXGXGXGXGXGXGXGXGXGXGXGXGXGXGXGXGXGXGXGXGXGXGXGXGXGXGXGX",
"GXGXGXGXGXGXGXGXGXGXGXGXGXGXGXGXGXGXX X X o X X X X GXGXGXGXGXGXGXGXGXGXGXGXGXGXGXGXGXGXGXGXGXGXGXGXGXGXGXGXGXGXGXGXGXGXGXGXGXGX"
};
